<?xml version="1.0" encoding="utf-8"?>
<!DOCTYPE svg PUBLIC "-//W3C//DTD SVG 1.1//EN" "http://www.w3.org/Graphics/SVG/1.1/DTD/svg11.dtd">
<!-- exported from Silhouette Studio Business Edition V4.1.479ssbe -->
<svg version="1.1" xmlns="http://www.w3.org/2000/svg" xmlns:xlink="http://www.w3.org/1999/xlink" width="339.3228mm" height="272.4997mm" viewBox="0 0 339.3228 272.4997">
<defs/>
<path d="M 263.4922 -54.29609 L 263.1232 -54.41895 C 262.9598 -54.74512 263.8216 -54.46091 263.4922 -54.29609 Z" fill="#EA5B27" fill-opacity="1" stroke="none" stroke-opacity="1" stroke-width="0.3527797" stroke-linecap="butt" stroke-linejoin="miter"/>
<path d="M 267.0102 145.9595 C 269.5373 143.5642 272.708 139.862 276.2387 139.9105 C 278.3354 139.9393 278.7387 140.7683 278.7646 140.8083 C 279.4021 141.794 278.6685 143.1623 278.3344 145.1893 C 281.5948 146.2221 285.1106 145.8119 284.6513 148.9048 C 284.5239 149.7631 284.1044 150.3967 282.6877 150.6668 C 280.4439 151.0947 279.7295 150.5921 279.6823 152.3122 C 282.7611 153.0733 284.739 156.9293 281.7615 158.6489 C 277.6897 158.1853 277.6856 157.9112 272.1847 157.0705 C 271.5506 159.3439 271.8424 163.7328 269.1794 163.4816 C 266.8117 163.2582 266.0945 158.6566 265.78 157.3162 C 260.9144 158.2215 257.4765 157.8563 253.8069 157.2159 C 250.1595 156.5793 247.6383 155.8481 240.5759 153.8329 C 245.6591 168.3088 238.6138 179.4967 236.8264 182.1146 C 234.3952 185.6753 234.0714 185.4561 225.3716 193.9097 C 224.3352 194.9168 221.3963 197.5588 219.8883 200.7773 C 218.334 204.0947 219.0226 206.9582 219.0385 207.0118 C 219.3231 207.9697 220.7574 209.2243 231.1283 214.1732 C 241.4988 219.1219 243.6248 220.612 243.3381 221.5864 C 243.194 222.0764 240.3273 223.6322 236.3317 223.1686 C 233.6396 222.8563 230.7361 221.6182 229.2991 222.2644 C 227.3137 223.1571 228.3814 225.4451 229.0499 226.8782 C 230.2418 229.4335 231.2027 231.4868 231.0113 235.3446 C 228.5388 235.5608 226.1325 235.0327 222.3035 231.2367 C 219.9023 228.8562 218.6542 227.1725 217.4921 227.5888 C 215.8835 228.1651 216.848 231.5142 217.1905 234.0982 C 217.872 239.241 216.3305 241.3855 214.5512 242.9782 C 212.0388 242.9981 208.8164 238.8517 202.3324 227.7896 C 202.1143 227.4175 200.4545 224.558 200.0116 223.7941 C 195.5803 216.1519 195.3701 216.4364 194.9209 216.077 C 194.4212 211.5449 194.5411 210.5098 193.9803 205.2037 C 193.309 198.8528 192.5202 196.8052 191.9923 196.4458 C 190.363 195.3369 188.1839 198.2793 187.7938 204.2581 C 187.3504 211.0535 190.2652 219.5333 190.6634 220.1293 C 192.589 223.0113 202.652 234.2096 202.2301 245.4664 C 199.5804 245.3943 196.6175 244.2047 191.9879 238.4318 C 189.7092 235.5904 187.6111 232.4238 186.1041 230.9362 C 185.7795 230.6157 184.5609 229.4666 183.8673 229.9527 C 182.0777 231.207 188.6553 249.9922 182.3759 249.5646 C 179.4906 249.3681 177.1501 242.7926 176.0464 240.0648 C 174.1555 235.3909 172.2734 230.439 170.0963 230.9224 C 168.1614 231.3521 167.9855 236.7786 167.7404 240.7802 C 167.3074 247.8513 166.6328 249.7437 165.4124 250.156 C 163.4656 250.8135 161.1536 248.1693 160.1726 239.8536 C 159.0706 230.5125 159.7683 218.8193 159.8065 217.1004 C 160.0368 206.7234 160.3512 201.6709 159.0711 194.8707 C 148.2167 191.1651 139.8263 186.8043 131.2571 180.9752 C 128.7524 179.2714 127.735 177.8743 117.4161 174.0192 C 113.5404 172.5713 108.6149 170.9637 102.6344 169.3061 C 102.5963 169.2955 98.67075 168.2278 98.34637 168.1412 C 98.3082 168.131 94.48457 167.1283 94.04462 167.0138 C 94.00633 167.0038 89.77556 165.9103 89.73727 165.9004 C 89.699 165.8905 85.47092 164.7876 85.43268 164.7775 C 85.39447 164.7673 81.17709 163.6318 81.13898 163.6213 C 76.00417 162.2129 69.22367 160.3095 60.12152 156.5185 C 59.87214 156.4146 55.79573 154.7255 55.44235 154.5785 C 43.05959 149.4243 34.01465 145.1587 26.07901 138.3872 C 18.58085 131.989 11.58092 124.3074 8.406982 116.5737 C 6.303104 111.4472 6.12317 108.986 7.945038 107.4175 C 9.947701 105.6934 10.79733 107.2457 14.81165 110.2615 C 23.42904 116.7354 35.08972 123.0781 48.47403 127.6588 C 60.31926 131.7128 74.43065 134.9466 91.56099 136.649 C 99.99576 137.4873 96.48162 137.1397 107.8557 137.0864 C 115.7208 137.0495 119.3934 136.8626 124.0042 135.4091 C 129.1647 133.7823 129.657 132.5562 137.3992 126.6238 C 142.8206 122.4696 148.6637 118.4498 152.9024 115.6877 C 163.4365 108.8235 173.8393 102.934 184.7403 97.35275 C 184.78 97.33241 189.1777 95.1067 189.2175 95.08676 C 189.2574 95.06681 193.6777 92.88593 193.7178 92.86636 C 193.7579 92.8468 198.1972 90.70652 198.2379 90.6882 C 202.0461 88.97228 211.6745 86.79495 214.8896 81.17052 C 217.0814 77.33635 215.5885 71.66659 215.1189 69.48232 C 213.2511 60.79478 210.6821 54.10679 212.9189 43.60998 C 214.4028 36.64631 218.292 28.29755 226.0373 22.74499 C 232.8217 17.88126 240.7025 13.99667 249.0912 11.32101 C 265.5094 6.084264 284.9464 4.980102 294.9456 6.015606 C 318.0173 8.404886 324.6823 22.62214 326.3982 26.02449 C 333.3323 39.77321 332.9088 55.83029 332.4793 66.32861 C 328.8119 67.20432 328.2416 70.20942 325.8557 73.18346 C 323.8587 75.67257 321.8903 74.74991 320.9276 74.31532 C 316.6793 82.88176 308.9246 87.76453 300.3449 89.55856 C 293.9041 90.90533 290.027 89.97066 278.3145 91.27908 C 266.264 92.62524 262.2814 94.00217 257.862 98.89905 C 255.7953 101.1892 254.2679 103.7212 253.0396 106.3776 C 251.9761 108.6777 250.065 113.5805 250.6801 114.6883 C 251.5618 116.2762 260.7799 117.992 264.2537 118.4767 C 273.0044 119.6975 278.7239 119.0481 284.3272 117.94 C 287.4076 111.7511 288.2122 106.9512 293.7938 106.5457 C 296.2904 108.3718 293.4051 109.9058 294.0784 112.9834 C 297.6748 110.9327 299.5727 110.378 302.049 111.5414 C 303.0623 114.3308 300.5479 115.0335 298.4599 118.13 C 301.3735 118.4027 306.0345 118.5372 304.5699 122.1537 C 303.1583 123.0978 302.3968 123.3036 299.5116 123.9904 C 297.4905 124.4716 296.2784 124.734 294.3951 126.0069 C 294.1576 128.5479 294.7053 131.044 292.9717 132.2264 C 292.8241 132.3271 291.7195 133.1619 290.4657 132.0334 C 289.1714 130.8684 288.3874 128.1179 286.7891 128.123 C 285.7164 128.1265 280.1813 132.5144 267.7545 134.6173 C 263.4657 135.343 259.2543 135.5818 255.8594 135.5967 C 247.8385 135.6319 246.5738 134.5919 246.2618 135.7892 C 246.0804 136.4853 246.809 137.2117 250.7249 139.7913 C 258.998 145.2411 264.0063 145.6632 267.0102 145.9595 Z" fill="#EA5B27" fill-opacity="1" stroke="none" stroke-opacity="1" stroke-width="0.2822238" stroke-linecap="butt" stroke-linejoin="miter"/>
<path d="M 327.1178 67.10509 C 323.9376 67.77954 320.2642 66.74884 317.2951 68.12489 C 318.1629 69.65409 320.1579 70.55084 321.453 71.87371 C 324.0685 72.88825 326.7227 68.67126 327.1178 67.10509 Z M 313.4606 68.59367 C 313.4225 68.52705 313.3795 68.46018 313.3307 68.39217 C 310.7914 68.06732 308.0505 68.12741 305.7362 69.33509 C 306.3343 71.18124 308.3082 71.73193 309.5276 73.03209 C 310.8284 72.05786 314.6412 70.65862 313.4606 68.59367 Z M 300.6036 70.04659 C 297.9873 70.49946 295.1586 70.44453 292.6682 71.38403 C 293.8649 72.74484 295.4967 74.16464 297.1889 75.02345 C 298.1129 73.3631 300.362 71.9416 300.6036 70.04659 Z M 288.8679 71.91017 C 285.7934 71.51584 283.0003 73.17533 280.0034 73.53437 C 281.0699 75.40002 283.4335 75.91926 284.8713 77.14044 C 285.8831 75.32997 289.4541 73.99735 288.8679 71.91017 Z M 275.2663 74.12032 C 272.8726 74.02584 270.3771 74.02363 268.0365 74.62645 C 269.1984 76.06155 270.4179 77.70283 272.0524 78.56014 C 273.4634 77.76669 275.5336 75.52556 275.2663 74.12032 Z M 263.1475 74.17392 C 261.0797 74.13236 258.7618 72.96169 256.8612 73.87511 C 257.7244 75.30428 257.9435 77.93861 259.0519 78.66112 C 260.12 77.15989 263.8336 75.93047 263.1475 74.17392 Z M 251.417 71.23317 C 251.387 71.17199 251.3478 71.11258 251.2992 71.0558 C 249.6554 70.04386 248.6917 70.23866 247.3069 68.51712 C 245.0038 67.6419 246.8256 71.05491 245.6907 72.02103 C 244.6618 76.94257 252.3515 73.1282 251.417 71.23317 Z" fill="#FDFCFC" fill-opacity="1" stroke="none" stroke-opacity="1" stroke-width="0.2822238" stroke-linecap="butt" stroke-linejoin="miter"/>
<path d="M 273.104 25.26289 C 276.8929 29.82576 274.5949 37.51104 268.9579 39.25982 C 263.0905 41.38921 255.7752 35.94558 257.1141 29.52501 C 257.4776 21.78447 268.9158 18.95536 273.104 25.26289 L 273.104 25.26289 Z M 269.5931 28.76016 C 267.2042 25.843 261.1377 26.62025 262.3116 31.41921 C 263.3916 36.47744 271.8781 33.33276 269.5931 28.76016 Z" fill="#F29A84" fill-opacity="1" stroke="none" stroke-opacity="1" stroke-width="0.3527797" stroke-linecap="butt" stroke-linejoin="miter"/>
<path d="M 269.5931 28.76014 C 271.8781 33.33275 263.3917 36.47742 262.3116 31.4192 C 261.1378 26.62023 267.2043 25.84299 269.5931 28.76014 Z" fill="#090707" fill-opacity="1" stroke="none" stroke-opacity="1" stroke-width="0.3527797" stroke-linecap="butt" stroke-linejoin="miter"/>
<path d="M 252.4435 101.6738 C 248.4966 99.6198 243.5958 103.5817 241.1427 106.5722 C 237.8672 110.85 234.6008 115.4113 233.4405 120.7647 C 236.6427 125.193 239.5097 130.4143 243.777 133.6611 C 246.5879 123.2591 248.1003 111.8006 252.4435 101.6738 Z M 237.8287 152.9577 C 233.4192 150.3127 228.3232 148.432 224.2755 145.0183 C 220.7749 150.8153 217.7228 157.2444 213.012 162.3656 C 212.1569 165.8449 212.7149 169.762 211.0031 173.0752 C 209.8028 177.1597 205.3319 179.1699 204.0862 183.2013 C 201.0043 186.9955 196.6423 189.3759 193.3799 192.9686 C 192.716 193.1796 193.0318 194.3101 193.7214 193.9384 C 198.9353 191.6926 204.5406 190.4034 209.3796 187.3103 C 213.909 183.091 220.7121 181.3464 224.057 175.8587 C 230.218 169.5301 235.425 161.4919 237.8287 152.9577 Z M 207.708 99.40193 C 207.4832 98.98923 207.2112 98.59368 206.89 98.22105 C 203.8549 94.15674 196.598 94.62374 194.4474 99.36955 C 191.0601 104.6661 197.1773 112.1459 203.0218 109.9408 C 207.6554 108.9372 209.8814 103.3914 207.708 99.40193 Z M 202.2714 118.4794 C 202.1497 118.2339 202.0042 117.9891 201.8336 117.7455 C 198.3763 111.8153 189.1639 118.9924 193.7138 123.8869 C 197.4654 128.6173 204.7477 123.4705 202.2714 118.4794 Z M 188.7281 108.5484 C 188.4991 108.0914 188.2193 107.6547 187.8867 107.2472 C 184.8049 104.0438 179.0412 103.9341 176.3945 107.7495 C 171.9942 112.2719 176.8456 120.8441 183.0227 119.7728 C 188.4175 119.2952 190.9426 112.966 188.7281 108.5484 Z M 185.9706 127.6025 C 185.8176 127.2522 185.5618 126.9139 185.1842 126.6054 C 182.7456 124.4068 178.2924 128.2394 181.0373 130.7926 C 183.1009 133.1064 187.0413 130.0551 185.9706 127.6025 Z M 172.9592 124.9405 C 172.5033 124.05 171.947 123.2201 171.2981 122.4835 C 166.7724 117.5768 157.8355 117.2623 152.9607 122.1698 C 145.7965 129.2508 151.8285 143.5512 162.3022 143.4298 C 165.1032 142.3917 168.226 141.7991 170.4156 139.6152 C 174.9613 136.3324 175.4211 129.7493 172.9592 124.9405 Z M 146.6046 133.9461 C 146.4326 133.6221 146.1938 133.3012 145.8791 132.989 C 143.2281 130.3054 137.5063 133.3246 139.656 136.9603 C 141.3604 142.0061 148.6343 137.7694 146.6046 133.9461 Z" fill="#FCCA8D" fill-opacity="1" stroke="none" stroke-opacity="1" stroke-width="0.2822238" stroke-linecap="butt" stroke-linejoin="miter"/>
<path d="M 326.4286 26.13175 C 325.7869 24.86088 325.0848 23.61415 324.3156 22.39191 C 317.2833 10.80375 303.6412 6.102415 290.6771 5.731777 C 268.0497 5.435388 244.2336 9.493998 225.5987 23.05933 C 213.669 31.98728 209.4395 48.84634 213.6532 62.81482 C 214.5745 68.98733 217.9367 75.51557 214.7225 81.60492 C 210.7819 86.89436 204.0457 88.34788 198.239 90.68951 C 174.0842 102.1998 150.6443 115.3684 130.0262 132.4963 C 120.918 138.7611 109.2837 136.5255 98.86176 137.2727 C 67.83241 135.0788 35.57818 127.3722 11.07544 107.3493 C 8.935587 105.4144 6.408566 108.4378 6.65506 110.7026 C 8.715405 121.6195 16.78982 129.8752 24.63937 137.1208 C 34.73177 146.3409 47.6926 151.3472 60.12161 156.5183 C 81.92043 165.8986 106.2866 167.8305 127.6151 178.4038 C 137.211 185.4276 147.7444 191.1442 159.0712 194.8705 C 160.5477 201.9099 159.8954 210.8761 159.7863 218.0192 C 159.6417 220.1916 158.4279 245.9616 163.4073 249.5774 C 169.9941 254.3606 165.8629 231.0875 170.2981 230.8967 C 174.4999 230.7158 177.3995 249.3031 182.3759 249.5646 C 188.8935 249.9071 181.7405 230.672 183.9649 229.9032 C 187.1541 228.801 193.7041 245.535 202.2302 245.4663 C 202.8555 233.9508 191.0121 221.1061 190.4279 219.742 C 188.2177 212.9485 186.1471 204.1984 189.5293 197.4982 C 189.926 196.352 191.8677 195.6644 192.4398 196.989 C 194.4526 203.1232 194.1649 209.7953 194.921 216.077 C 197.3468 217.2932 209.6587 243.8008 214.5513 242.9781 C 220.5152 237.9175 214.7217 229.4487 217.2627 227.7087 C 219.6585 226.0681 223.7264 236.2119 231.0114 235.3445 C 231.4978 228.4941 226.9894 225.4874 228.4169 223.0744 C 230.2953 219.8993 236.0927 225.5986 242.8135 222.0545 C 247.609 220.0257 219.1675 210.2105 219.0176 206.8891 C 217.7103 198.696 226.0431 194.0396 230.6281 188.7045 C 240.9422 180.8279 245.0864 165.7899 240.5757 153.8327 C 248.6886 156.1063 257.2324 159.0509 265.7801 157.3161 C 266.4632 159.5291 266.4597 162.4681 269.0387 163.4629 C 272.2375 163.6206 271.3548 159.0097 272.1848 157.0704 C 275.3927 157.4586 278.5508 158.353 281.7617 158.6488 C 284.8839 157.1315 282.3747 152.7548 279.6821 152.3133 C 278.9185 149.8184 284.4225 151.7867 284.585 149.0141 C 285.4035 145.4845 280.2342 146.1236 278.3342 145.1905 C 278.3063 143.6503 280.0699 141.3423 278.0396 140.2093 C 273.4517 138.7226 269.9894 143.2719 267.0103 145.9609 C 259.4456 145.5246 252.624 141.4149 246.7159 136.95 C 246.0244 136.4394 246.0343 135.3085 247.0105 135.1838 C 260.3787 136.4605 274.5022 134.9595 286.3014 128.1706 C 289.0511 127.5448 289.3274 133.1265 292.23 132.5794 C 295.0691 131.6246 293.9899 128.1809 294.3952 126.0068 C 297.3186 123.7058 301.7241 124.215 304.57 122.1536 C 306.2829 118.5101 300.7106 118.4185 298.4591 118.1314 C 299.5331 116.0132 303.2963 114.2999 302.0491 111.5428 C 299.3774 110.1205 296.4184 111.5938 294.0785 112.9849 C 293.1544 110.8963 296.3566 108.1225 293.7939 106.5471 C 287.8014 106.7377 286.7117 113.852 284.3275 117.9414 C 274.7945 120.1543 264.6766 119.04 255.2585 116.7186 C 253.7058 115.8582 249.7888 115.9613 250.6168 113.2989 C 252.8429 104.2509 258.7477 94.23692 268.8021 92.73328 C 277.1906 91.06675 285.786 90.47964 294.363 90.31079 C 305.1731 89.89999 316.2145 84.35433 320.9277 74.31523 C 326.7733 77.28458 327.1101 66.99945 332.4794 66.32852 C 333.1101 52.81226 332.629 38.41808 326.4292 26.1403 L 326.4286 26.13175 Z M 327.118 67.1062 C 326.7231 68.67233 324.0687 72.8895 321.4532 71.87482 C 320.158 70.55196 318.163 69.65524 317.2952 68.12602 C 320.263 66.74972 323.9362 67.77998 327.117 67.10675 L 327.118 67.1062 Z M 313.461 68.59476 C 314.6416 70.65976 310.8286 72.05901 309.528 73.03319 C 308.3086 71.73303 306.3346 71.18233 305.7365 69.3362 C 308.0509 68.1285 310.7917 68.06847 313.3312 68.39326 C 313.3799 68.46127 313.423 68.52815 313.461 68.59476 Z M 300.6039 70.04771 C 300.3622 71.94274 298.1133 73.36414 297.1891 75.02444 C 295.4969 74.16563 293.8651 72.74592 292.6683 71.38501 C 295.1587 70.44557 297.9874 70.50051 300.6039 70.04771 Z M 288.8682 71.91127 C 289.4543 73.99847 285.8832 75.33115 284.8715 77.14139 C 283.4339 75.92016 281.0703 75.40102 280.0037 73.53529 C 283.0005 73.17625 285.7937 71.51674 288.8682 71.91127 Z M 300.0674 112.7095 C 300.0123 115.2047 296.7926 116.2398 296.1783 118.6398 C 297.0709 121.4834 301.3434 118.9393 302.2949 121.3401 C 299.3121 122.6967 295.6342 122.3769 293.1855 124.8762 C 291.2045 125.6896 293.0615 128.4675 291.3718 129.5522 C 289.6069 128.6465 289.8175 124.9019 287.2392 125.7261 C 275.1659 132.1255 261.0583 134.6001 247.5717 132.7383 C 246.7994 127.7194 248.2355 122.0008 250.268 117.2383 C 261.4063 121.9889 274.3025 122.7778 285.9565 119.8103 C 287.1965 116.017 288.4817 111.4275 291.9884 108.9748 C 294.1688 110.082 290.1243 113.7628 292.0563 115.3962 C 294.8849 115.1251 297.2111 112.9414 300.0674 112.7095 Z M 275.2656 74.11945 C 275.533 75.5246 273.4629 77.76575 272.0518 78.55925 C 270.4172 77.70193 269.1977 76.06067 268.0359 74.62556 C 270.3763 74.02273 272.8717 74.0249 275.2656 74.11945 Z M 263.1468 74.17305 C 263.8327 75.92973 260.1193 77.15903 259.0512 78.66028 C 257.9427 77.93764 257.7237 75.30329 256.8605 73.87425 C 258.7611 72.96085 261.079 74.13161 263.1468 74.17305 Z M 251.4163 71.23228 C 252.3508 73.12738 244.661 76.94183 245.6898 72.02023 C 246.8248 71.05408 245.003 67.64112 247.306 68.51634 C 248.6908 70.23785 249.6546 70.04306 251.2983 71.05501 C 251.347 71.11179 251.386 71.17126 251.4163 71.23228 Z M 220.5723 211.7067 C 227.7015 215.2322 231.7948 217.1347 238.331 220.6552 C 233.513 220.6457 229.1518 217.6101 226.3159 221.5052 C 224.048 224.6201 227.3687 228.0938 228.2939 232.4424 C 223.3694 230.1351 221.6843 224.8906 217.6353 224.9698 C 215.3747 225.014 213.9372 226.9643 213.9837 229.5367 C 214.0124 231.1294 214.6272 233.7782 214.739 235.6699 C 214.901 238.4125 214.1593 239.3977 213.8428 239.9298 C 211.7382 237.9282 209.536 234.9301 204.571 226.478 C 204.447 226.2669 202.5681 223.0263 201.8048 221.7143 C 200.903 220.1642 198.4523 217.4014 197.5996 214.0724 C 195.815 207.1049 195.4631 202.0261 195.2117 195.9732 C 207.8317 191.8019 220.2151 185.2737 228.588 174.635 C 232.9852 169.8791 236.0012 163.9157 239.1503 158.5524 L 239.1492 158.5533 C 241.1877 164.398 238.4902 170.4819 236.7097 176.0811 C 233.3161 184.1899 226.0098 189.5487 220.2821 195.8726 C 215.9788 200.2859 217.0295 203.6931 217.1136 208.2827 C 217.1456 210.0267 219.1142 210.9856 220.5723 211.7067 Z M 188.659 221.7836 C 191.8223 230.295 197.7468 233.1096 199.4491 242.0199 C 194.154 238.6236 190.6338 231.3424 187.2979 228.5426 C 184.3042 226.03 181.7366 227.4586 181.1344 229.7539 C 180.7175 231.3427 180.8915 233.095 181.7849 237.9412 C 182.6656 242.7182 182.8154 244.5137 182.397 246.8058 C 179.446 243.4212 177.913 236.3561 175.2065 231.8849 C 172.269 227.0322 168.6987 227.6227 166.957 230.3185 C 165.0209 233.3153 165.2424 242.7657 164.4913 246.8598 C 164.1901 246.1984 161.4562 241.2387 162.3012 219.6957 C 162.4247 219.7626 163.2038 214.4346 163.0501 212.9461 C 163.4689 199.6511 161.9392 185.7279 155.4456 173.9362 C 154.7387 172.7359 152.3653 170.7888 151.9676 173.1977 C 154.0513 178.7087 156.9917 184.0076 157.684 189.9572 C 157.6724 191.123 156.1245 190.7339 155.4209 190.4568 C 149.6802 187.3637 143.3119 185.4184 137.8075 181.9341 C 123.9547 170.7753 105.8819 167.9301 89.24054 163.1391 C 78.3008 161.2837 68.03595 156.9222 57.78946 152.8699 C 48.49633 148.4578 38.80462 144.53 30.5928 138.1741 C 22.14894 130.9679 13.20299 123.0842 9.727753 112.1728 C 9.360562 111.4544 9.328243 109.5338 10.57162 110.3064 C 34.54814 128.3996 64.09543 138.2228 94.0257 139.6507 C 102.929 140.1033 112.1085 140.9103 120.8319 138.6176 C 127.3146 140.0505 132.5372 132.5579 138.1388 129.375 C 153.0371 117.4717 169.9005 108.4888 186.4644 99.26186 C 195.6986 93.64284 206.7095 91.65666 215.4365 85.1619 C 220.028 80.64996 218.8363 73.8167 217.1589 68.28438 C 213.4119 55.10946 213.3481 39.21151 223.0237 28.52182 C 231.7884 20.23497 243.1371 15.36574 254.636 12.24452 C 270.5543 9.185921 287.2623 5.814591 303.2594 10.39557 C 309.6709 11.33731 315.1392 15.55994 319.4645 20.16508 C 321.5756 22.48755 323.2486 25.02562 324.5819 27.71589 L 324.5994 27.7006 C 329.361 37.3085 329.7889 48.85809 330.3605 59.46057 C 330.1127 61.26009 331.2451 64.50668 328.6287 64.92171 C 311.7472 65.21394 295.0748 68.30487 278.5779 71.67979 C 266.1602 73.77856 251.8186 72.12508 243.0461 62.18731 C 239.7266 59.84954 246.8393 58.57904 244.213 56.50492 C 239.5181 56.51604 236.2176 63.09946 239.201 66.90182 C 241.2794 66.85089 239.1736 62.79533 241.2371 63.28257 C 245.5666 66.4643 241.9645 73.3619 245.4664 77.04855 C 248.6755 77.06087 251.338 74.57961 254.4878 74.20084 C 256.5154 75.91904 255.6607 80.23199 258.5232 81.14943 C 261.6564 80.54776 263.2496 77.0438 266.24 75.99809 C 268.3387 77.54043 269.5166 80.68849 272.2589 81.11626 C 274.9886 79.92052 275.9454 76.5913 278.3855 75.16528 C 280.613 76.59388 282.1485 79.39622 284.9758 79.72081 C 287.9118 79.12688 288.9202 76.08203 291.0266 74.45154 C 293.5735 74.81427 295.444 78.38501 298.3347 77.53342 C 300.455 76.27882 301.4332 73.48495 303.4398 72.22282 C 305.9143 73.26625 307.8736 75.45422 310.218 76.84329 C 312.6798 76.6573 313.6415 73.66278 315.2326 72.08553 C 316.1354 70.39789 318.9995 72.15967 317.8678 73.74579 C 315.0276 79.0375 310.1057 83.03249 304.6205 85.38017 C 293.7782 88.70328 282.349 87.96877 271.1916 89.33427 C 263.5395 90.57916 256.5302 95.02386 252.4445 101.6745 C 248.101 111.8014 246.5885 123.2597 243.7781 133.6618 C 239.5108 130.415 236.6437 125.1936 233.4415 120.7654 C 231.7961 119.379 230.771 111.1661 228.563 113.0103 C 232.7049 131.1981 249.5526 147.5071 268.807 148.0862 C 270.5918 145.7069 272.7809 143.5303 275.6485 142.4513 C 276.9998 143.7878 274.0475 145.3567 274.7685 147.077 C 275.8989 149.3504 280.0541 146.7093 280.8131 148.9072 C 279.3309 149.8082 277.3966 150.223 276.3727 151.7362 C 276.4057 154.3543 280.5455 153.787 280.4936 156.2581 C 277.0616 156.581 270.0352 152.9338 269.6649 158.7826 C 268.5461 162.4091 267.7066 156.1573 267.0952 155.1857 C 246.3396 156.6817 224.2888 147.1544 212.9889 129.2562 C 212.7384 128.4149 210.9434 128.1307 211.4578 129.3023 C 214.168 135.5877 219.0154 140.7507 224.2791 145.0186 C 228.3266 148.4324 233.4228 150.3131 237.8323 152.9581 C 235.4288 161.4923 230.2217 169.5304 224.0605 175.8591 C 220.7155 181.3467 213.9125 183.0915 209.3831 187.3108 C 204.5441 190.4038 198.9388 191.693 193.7249 193.9388 C 193.0353 194.3105 192.7194 193.18 193.3833 192.969 C 196.6457 189.3762 201.0078 186.9959 204.0896 183.2017 C 205.3354 179.1702 209.8063 177.1601 211.0066 173.0755 C 212.7181 169.7625 212.1602 165.8454 213.0154 162.366 C 212.7673 153.5023 208.1657 144.2556 200.2082 140.1114 C 196.5291 140.1296 199.9595 144.0526 201.6351 144.9843 C 210.3998 151.1884 211.6147 163.2487 207.5602 172.4379 C 203.843 179.2036 197.9988 184.5364 191.9659 189.2125 C 188.52 192.7113 184.4181 196.5876 184.543 201.9117 C 183.6603 208.0092 185.8599 214.2517 188.659 221.7836 Z" fill="#642A3E" fill-opacity="0.84" stroke="none" stroke-opacity="1" stroke-width="0.2822238" stroke-linecap="butt" stroke-linejoin="miter"/>
</svg>