<?xml version="1.0" encoding="utf-8"?>

<!DOCTYPE svg PUBLIC "-//W3C//DTD SVG 1.1//EN" "http://www.w3.org/Graphics/SVG/1.1/DTD/svg11.dtd">
<svg version="1.1" id="Layer_1" xmlns="http://www.w3.org/2000/svg" xmlns:xlink="http://www.w3.org/1999/xlink" x="0px" y="0px"
	 viewBox="0 0 2245.853 1647.723" enable-background="new 0 0 2245.853 1647.723" xml:space="preserve">
<g>
	<path fill="#5B5A5A" stroke="#5B5A5A" stroke-width="0.75" d="M758.032,24.301c8.485-2.077,17.414,3.447,20.713,11.273
		c19.639,45.344,36.135,97.097,42.287,146.548c182.134-54.623,266.173-26.896,336.582,21.633
		c53.234,36.459,112.818,97.379,207.875,87.873c106.548-10.009,215.807-83.627,336.938,64.543
		c2.438,2.988,38.925,27.241,69.812,43.474c77.672,40.609,152.105,54.929,213.809-7.084c2.029-2.136,4.308-4.064,6.111-6.42
		c0.35-2.534-0.107-5.097,0.006-7.636c1.456-96.346,70.481-98.568,138.811-139.505c38.531-22.854,54.605-46.38,58.889-50.873
		c1.119,7.91,5.15,72.582,3.02,98.346c-2.014,42.391-11.251,59.663-12.828,65.445c7.846-6.129,21.91-18.617,25.513-20.986
		c4.495,25.574,4.112,52.483-7.411,75.502c-26.297,52.537-97.275,56.93-155.466,51.021c-0.937,0.184-1.163,1.293-1.715,1.922
		c-44.696,66.404-117.788,103.211-196.934,85.66c-23.073-5.024-37.414-12.338-41.824-13.664
		c27.659,79.269,29.011,178.115,15.51,261.299c4.8,1.317,9.713,2.261,14.4,4.011c147.963,51.701,226.978,446.772,119.706,506.329
		c-5.611,3.179-76.825,34.821-135.097,5.043c-46.582-23.519-71.557-75.481-101.193-113.689
		c-37.593,25.774-73.359,29.169-76.018,30.622c-3.744,11.665-8.485,23.134-15.397,33.304
		c-14.176,21.129-29.745,25.629-38.353,28.593c-39.417,13.127-81.021,18.305-118.561-0.071
		c-22.078-10.672-36.823-26.307-47.675-38.336c-37.345,15.48-77.567,22.992-117.765,25.692c-7.019,0.32-14.026,1.015-21.057,0.837
		c-7.824,21.71-30.273,90.999-80.943,167.095c-45.113,67.738-101.808,124.81-169.083,170.234c-4.37,2.682-9.34,11.941-31.198,11.511
		c-55.715-2.362-163.289-71.768-224.121-184.658c-0.409-1.074-1.335-0.059-1.845,0.303c-31.15,22.814-63.73,43.764-97.995,61.6
		c-2.885,1.62-6.348,8.035-21.93,8.876c-31.81,0.858-72.306-22.608-98.001-41.427c-77.589-57.178-123.931-147.938-114.093-196.139
		c3.449-17.23,12.882-21.456,16.869-24.113c57.058-43.846,121.011-99.994,157.234-162.533c0.587-1.454,2.694-3.198,1.062-4.622
		c-29.985-37.393-28.208-39.977-31.293-39.451c-88.5,16.73-175.469,10.66-245.19-10.389
		c-125.475-41.179-197.671,56.116-237.014-95.254c-11.641-2.539-23.283-5.482-34.224-10.294
		c-14.397-6.697-14.801-11.224-15.86-16.163C32.291,818.231,28.16,733.012,68.641,649.749c0.997-2.433,2.771-4.598,3.05-7.274
		c4.45,16.55,11.747,37.542,12.674,43.942c-27.132,54.839-22.518,140.195-7.986,201.058c3.5,16.474,46.953,27.685,63.256,31.714
		c39.723,10.079,120.971,5.94,163.262-13.878c7.915-3.578,15.083-8.645,21.277-14.727c0.06,4.075-2.895,10.988-5.405,14.578
		c-16.185,23.269-58.625,32.191-86.686,36.14c-45.833,6.053-79.116,2.008-83.589,2.017c1.377,7.067,3.964,13.902,7.245,20.31
		c21.933,43.798,73.967,14.272,181.662,39.593c196.373,54.371,428.661-16.008,530.271-197.694
		c31.951-57.053,39.689-104.138,42.097-110.23c-8.736,107.623-54.235,201.516-139.292,266.461
		c-67.935,51.992-138.528,68.027-149.55,71.794c6.384,7.82,13.297,15.195,20.061,22.689
		c18.836,18.046,95.76,108.165,223.077,135.097c20.141-29.104,38.67-58.588,60.538-97.426c1.121-1.94,0.902-4.26,0.991-6.402
		c1.717-64.203,10.72-130.773,5.844-189.921c14.434,8.703,27.298,70.565,20.731,143.724c2.017-3.068,3.228-6.556,4.966-9.772
		c21.656-44.064,33.091-74.364,36.348-81.263c-0.077,9.464-1.382,18.88-2.688,28.243
		c-17.53,115.752-107.596,240.735-182.463,331.663c93.271,31.223,196.384,162.178,222.732,245.416
		c198.791-155.076,256.201-406.295,286.753-659.47c1.21-10.585,2.611-21.152,3.548-31.761
		c0.319,1.283,21.807,174.409-24.451,354.833c8.838,0.094,51.244,3.137,95.391-7.666c43.135-10.383,81.45-32.099,112.283-66.893
		c76.75-85.345,111.483-259.374,120.904-278.061c-0.205,6.228-7.058,54.25-13.231,87.327
		c-12.879,69.138-33.381,142.13-74.304,199.758c-4.569,6.64-9.731,12.834-14.578,19.26
		c101.681,35.837,167.256,15.921,246.964-58.556c3.964-3.732,7.761-7.642,11.76-11.333c-1.566,7.222-12.684,42.298-43.189,71.906
		c53.927,85.92,87.478,129.995,170.222,109.779c20.247-5.928,29.054-8.115,41.177-21.069
		c75.534-86.688-23.86-413.285-139.707-433.195c-11.278,48.391-24.503,84.643-29.566,95.705c3.377-28.498,18.9-130.052,7.98-246.14
		c-8.603-91.041-27.414-127.787-38.359-150.933c-126.305-269.67-225.801-226.709-346.366-205.116
		c-39.484,6.56-52.961,6.109-71.313,6.088c-5.464,0.055-64.637-10.433-124.98-40.816c-89.459-43.961-131.642-100.122-269.6-85.304
		c-36.81,4.057-80.234,13.542-113.826,23.312c2.072,94.364-31.324,173.318-87.072,226.85c-2.047,1.97-4.035,4.005-6.295,5.72
		c0.403-1.009,0.825-2.011,1.264-3.008c2.486-3.174,4.373-6.752,6.456-10.194c70.463-120.712,64.013-214.128,31.352-346.17
		c-0.831-3.127-1.412-6.331-2.516-9.381c-2.267-6.016-7.547-10.995-13.932-12.264c-10.084-2.316-16.334,5.499-20.684,10.188
		c-71.595,74.483-104.638,161.594-101.787,250.489c1.914,68.785,24.579,118.013,26.504,125.17c-3.062-2.818-5.316-6.355-7.862-9.606
		c-22.167-29.688-33.234-62.534-39.783-97.153c-47.47-0.894-102.551,27.853-121.901,82.581c-5.162,14.11-17.42,25.602-32.177,28.949
		c-44.674,10.258-73.609,38.45-95.723,78.231c-7.144-8.918-12.84-18.868-18.085-28.99c0.427-0.35,0.765-0.759,1.026-1.234
		c14.214-33.011,48.623-61.5,91.386-70.595c11.712-2.569,21.942-10.306,28.302-20.381c4.308-6.503,6.165-14.187,9.434-21.194
		c-60.075-66.02-89.839-206.874-70.465-289.062c1.571-6.683,8.456-12.045,16.05-8.888c2.373,1.021,4.058,3.056,5.862,4.824
		c89.053,90.497,159.155,96.243,172.174,218.383c3.631,0,7.215-0.682,10.846-0.688c-0.291-14.43-0.676-28.913,0.736-43.296
		c8.16-98.122,61.838-186.476,135.815-252.441C747.957,30.353,752.016,25.441,758.032,24.301 M415.873,162.555
		c-3.081,65.262,20.191,159.214,60.704,210.806c3.002,3.619,5.862,7.434,9.505,10.449c28.452-38.699,82.917-48.624,86.835-49.822
		c-25.715-102.148-70.652-115.336-137.108-179.722C427.756,145.724,416.165,152.75,415.873,162.555 M2171.561,241.866l0.107,0.528
		c-33.227,19.66-57.917,39.533-75.674,53.038c-5.334,4.002-32.519,23.921-35.784,24.813c19.331-17.185,39.884-36.733,69.005-57.465
		c3.72-2.878,7.856-5.239,11.38-8.36c-3.595,1.4-6.805,3.584-10.229,5.316c-57.624,30.699-114.18,45.828-118.109,123.028
		c7.66-4.996,14.857-10.692,22.446-15.801l0.059-0.427c2.273-1.096,50.725-35.959,51.727-36.68c0.789-0.469,1.691-1.709,2.616-0.724
		c-4.692,3.703-40.337,35.003-74.185,64.383c-8.149,6.688-59.209,85.752-186.871,55.293c-43.694-10.463-77.58-29.416-83.304-31.779
		c0,0,10.599,18.44,15.682,27.679c2.011,3.34,3.424,7.084,5.755,10.211c0.854,2.516,2.148,4.889,3.661,7.078
		c1.495,4.165,3.963,7.88,5.874,11.855c2.901,5.654,5.298,11.582,8.473,17.076c7.393,4.159,15.272,7.452,23.104,10.728
		c109.643,44.044,206.458-10.682,220.525-65.558c0.225-0.208,0.682-0.623,0.908-0.831c2.407-0.158,45.992-8.773,73.123-28.955
		c27.216-20.046,44.286-55.3,49.899-62.277c-0.522,3.323-1.881,6.426-2.854,9.63c-13.74,41.666-41.946,63.855-84.521,82.242
		c-2.806,1.311-5.827,2.154-8.467,3.785c5.175,1.293,46.298,4.916,82.219-11.315c32.778-14.764,54.202-42.368,55.032-68.168
		c-3.708,2.041-6.984,4.77-10.532,7.067c-21.37,15.08-16.028,10.252-20.808,17.147c-4.016,5.909-18.443,26.184-20.814,28.005
		c0.95-4.964,41.267-91.641,31.494-167.41C2172.214,243.966,2172.76,242.424,2171.561,241.866 M639.626,1109.175
		c-3.28,4.621-16.436,25.823-42.791,56.325c-5.15,6.144-26.831,29.532-31.927,33.891c-1.08,0.872-2.32,1.632-2.99,2.901
		c-18.708,18.21-38.828,34.918-59.624,50.689c21.123,9.749,22.029,11.767,28.456,15.219
		c63.795,42.106,120.327,119.456,140.989,171.433c2.664,6.462,4.604,13.184,6.758,19.823c27.483-8.141,53.225-19.81,84.028-42.204
		c0.849-0.599,1.928-1.43,1.199-2.557c-8.307-20.061-15.106-41.219-15.611-63.107c0.104-28.41,10.891-34.277,19.568-43.159
		c33.031-32.527,64.955-73.352,68.097-78.427c-5.34-0.831-10.71-1.424-16.002-2.486c-62.843-11.916-116.823-53.153-161.548-98.921
		c-5.927-6.533-12.122-12.816-17.883-19.497C640.166,1109.122,639.81,1109.158,639.626,1109.175 M1489.693,1206.304
		c-13.047,10.894-27.133,20.565-42.097,28.634c2.1,2.54,4.741,4.539,7.179,6.752l0.38-0.024
		c1.455,2.195,17.249,15.247,34.532,20.796c27.945,9.942,58.872,4.027,86.639-5.678c16.816-5.599,28.912-21.677,32.016-29.038
		c-6.729,0.113-13.451-0.059-20.168-0.261c-1.94-0.694-4.029-0.297-6.016-0.493c-6.072-0.467-19.351-1.996-27.288-3.596
		c-2.504-0.391-4.954-1.175-7.488-1.24c-2.462-1.05-5.138-1.347-7.696-1.994c-8.584-1.778-29.702-8.11-46.969-15.278
		C1491.473,1204.145,1490.589,1205.699,1489.693,1206.304 M471.053,1270.51c-6.64,0.918-8.264,3.644-9.084,9.244
		c-6.27,60.27,104.265,194.156,172.062,196.038c10.759,0.197,12.487-2.929,13.475-9.784c1.773-16.863-8.124-40.55-15.13-55.851
		C600.949,1343.015,515.661,1266.619,471.053,1270.51 M773.922,1334.851c-7.211,9.486-0.408,34.318,3.21,45.717
		c29.283,87.764,135.181,198.56,202.761,212.586c10.571,1.982,22.366,2.288,23.9-8.354c8.491-50.772-76.396-184.961-173.77-238.788
		c-9.754-5.18-19.841-9.944-30.581-12.697C792.079,1331.436,779.116,1329.416,773.922,1334.851z"/>
	<path fill="#958C88" stroke="#958C88" stroke-width="0.75" d="M753.831,78.811c6.384,1.27,11.665,6.248,13.932,12.264
		c0.362,1.001,27.006,94.712,26.065,168.763c-0.071,28.249-3.922,56.438-10.947,83.791c-2.419,0.335-1.211,0.86-10.615-6.183
		c-3.441-3.815-7.411-7.144-10.573-11.202c5.294-68.487-15.673-156.876-23.312-179.3c-3.168,2.901-29.572,33.36-51.964,84.455
		c-3.448-6.769-14.456-18-22.226-27.845c-1.727-2.017-2.836-4.581-5.049-6.153c17.824-40.24,43.557-76.724,74.007-108.403
		C737.503,84.303,743.739,76.493,753.831,78.811z"/>
	<path fill="#E14782" stroke="#E14782" stroke-width="0.75" d="M729.92,156.971c2.783-3.37,5.221-7.061,8.461-10.027
		c7.515,22.059,45.701,166.854,7.019,247.991c-24.645,50.309-68.594,47.749-83.364-3.572
		C647.352,343.4,669.226,235.479,729.92,156.971 M672.242,290.33c-11.776,47.126-8.679,86.05-4.343,98.203
		c18.828,59.258,56.852,33.061,71.236,0.736c27.333-58.083,14.058-143.591-1.976-205.923c-1.359-4.77-2.308-9.671-4.076-14.305
		C705.075,201.384,683.115,246.203,672.242,290.33z"/>
	<path fill="#A9A2A0" stroke="#A9A2A0" stroke-width="0.75" d="M415.873,162.555c0.292-9.803,11.879-16.834,19.936-8.289
		c62.657,60.705,102.284,73.796,129.674,154.404c-4.42-0.38-8.692-1.691-13.095-2.189c-52.355-7.489-100.657,10.317-107.453,11.018
		C422.591,262.749,413.924,203.832,415.873,162.555z"/>
	<path fill="#F494B9" stroke="#F494B9" stroke-width="0.75" d="M696.592,224.463c10.051-19.746,21.965-38.65,36.49-55.424
		c1.486,3.896,14.686,50.255,19.628,97.331c4.2,40.133,3.6,86.4-13.576,122.898c-13.918,31.278-52.151,59.333-71.236-0.736
		C662.47,373.316,656.481,305.279,696.592,224.463 M677.552,296.862c-7.516,28.318-5.968,56.12-1.127,84.966
		c1.911,9.796,4.865,20.239,12.591,27.11c5.463,5.499,14.707,6.714,24.095-0.576c10.525-7.477,30.644-41.425,33.565-74.909
		c2.874-27.569-4.145-61.891-10.953-88.686c-2.931-11.44-5.678-22.944-9.298-34.182
		C705.365,234.187,685.575,265.364,677.552,296.862z"/>
	<path fill="#A9A2A0" stroke="#A9A2A0" stroke-width="0.75" d="M659.141,197.401c2.213,1.572,3.323,4.136,5.049,6.153
		c7.764,9.838,18.779,21.078,22.226,27.845c-17.389,40.307-29.9,86.974-28.599,130.522c4.82,100.602,94.28,94.653,103.875-35.677
		c3.163,4.058,7.132,7.387,10.573,11.202c-1.519,6.895-2.634,13.878-4.32,20.743c-8.642,35.245-23.439,68.385-36.739,101.638
		c4.253-3.226,48.508-41.535,74.09-110.544c5.364,0.884,10.306-1.679,15.439-2.688c4.48,1.556,3.636-1.124,46.458-3.72
		c6.452,0.027,25.935-1.192,33.375-0.202c3.489,0.445,7.019,0,10.52,0.344c4.343,0.475,8.722,0.587,13.065,1.092
		c2.243,0.131,4.557,0.854,6.764,0.053c2.971,6.272,1.57,13.261,15.166,28.427c2.658,3.382,6.444,5.601,9.173,8.924
		c-6.128,5.584-9.044,4.927-26.101,16.833c-2.433,1.709-4.67,4.225-7.903,4.088c-11.356,0.326-22.636,3.008-32.847,8.01
		c-3.246,1.679-7.013,1.46-10.413,2.611c-23.164,7.639-25.704,45.767,10.484,58.675c22.613,7.644,55.552,3.841,79.922-15.154
		c12.534-10.713,8.639-15.041,8.829-19.645c3.536-2.183,7.535-3.471,11.202-5.423c39.674-19.602,31.021-19.766,39.605-19.094
		c7.47,0.955,15.011,0.267,22.517,0.546c0.777-0.036,1.347,0.54,1.958,0.967c-3.667,1.632-7.541,3.079-10.478,5.921
		c-6.977,5.942-8.188,18.82,5.732,31.459c5.701,4.899,18.7,17.475,37.861,24.404c4.699,1.822,9.683,2.599,14.531,3.892
		c25.176,8.951,52.291-0.442,49.312-20.88c-0.332-4.628-1.816-9.298-5.026-12.739c-0.427-0.748-1.869-1.489-0.926-2.356
		c1.887-0.807,3.969-1.151,6.028-1.127c1.863,1.394,2.67,3.75,4.076,5.565c5.963,8.289,14.341,14.371,22.689,20.061
		c14.697,9.938,29.726,19.503,45.705,27.264c1.875,0.771,1.828,3.044,2.48,4.676c2.397,7.108,9.054,11.718,15.641,14.614
		c7.304,3.269,15.617,2.569,23.247,0.949c0.12,16.038,2.973,18.72,5.566,26.564c4.653,14.089,16.179,22.303,17.723,24.19
		c-4.052,1.264-7.826,3.732-9.867,7.541c-2.154,3.174-0.938,7.215,0.374,10.472c3.637,7.512,11.588,11.434,19.082,14.121
		c16.418,4.954,33.162,9.523,50.386,10.288c5.008,0.166,10.075,0.991,15.065,0.148c2.854-0.593,5.939-3.382,4.948-6.539
		c-1.151-3.323-5.815-2.824-7.197-5.963c-1.804-3.246-4.847-5.477-7.69-7.731c-2.326-1.869-5.405-2.421-7.696-4.325
		c4.575-0.937,9.303-1.044,13.813-2.385c39.808-11.359,49.701-51.314,29.934-79.169c-3.518-5.631-8.455-10.14-13.22-14.685
		c-26.754-22.54-50.571-20.677-55.097-21.402c-1.151-1.649-1.21-3.827-2.178-5.589c-1.281-2.611-3.299-4.759-4.652-7.328
		c32.561,0.504,74.683,6.462,108.005,19.117c24.232,9.078,46.838,22.44,66.62,39.107c-4.931,1.193-9.589,3.435-13.457,6.717
		c-1.881,1.685-5.061,2.308-5.649,5.079c-0.92,3.785-2.996,7.571-2.011,11.564c1.388,5.844,5.453,10.603,10.004,14.335
		c2.284,1.804,5.132,2.682,7.939,3.352c3.56,0.848,7.286,0.166,10.864,0.967c10.292,2.607,21.873,1.653,31.91-3.922
		c0.825,2.783,3.162,4.652,4.931,6.835c11.278,13.66,21.413,27.292,31.014,41.456c-13.85,15.665,1.676,33.856,22.903,35.766
		c3.809,0.006,7.63-0.214,11.44,0.166c-3.37,0.991-6.895,0.433-10.33,0.593c1.869,4.551,4.925,8.485,7.28,12.792
		c5.963,10.484,12.294,20.785,17.794,31.524c-13.7-0.131-27.691,1.288-40.442,6.586c-8.771,3.943-19.145,10.082-20.707,19.58
		c-1.122,11.81,8.093,18.532,20.12,20.197c2.427,0.392,5.061,0.267,7.233,1.62c4.782,2.961,10.383,4.153,15.884,4.972
		c15.3,1.92,29.117-0.68,43.682-5.601c2.916,6.26,24.427,49.112,25.97,52.119c0.409,0.095,1.234,0.297,1.649,0.392
		c-0.344,0.089-1.021,0.267-1.365,0.35c-21.416,2.505-28.555,26.111-14.721,37.457c9.693,8.264,25.136,9.982,37.873,10.128
		c0.397,1.817,9.649,21.173,13.326,29.02c-1.445,0.482-5.223,2.674-7.132,4.373c-4.728,4.529-4.584,12.128,2.427,14.988
		c9.967,4.268,13.521,3.666,18.904,4.859c-0.902,0.095-1.78,0.214-2.634,0.356c0.686,1.9,17.492,39.828,23.306,50.178
		c20.495,35.661,49.198,52.855,91.908,53.412c24.488-1.765,43.883,25.757,56.859,46.411c27.627,44.371,76.032,166.637,88.52,182.777
		c-2.551,13.421-6.812,26.659-13.765,38.472c-18.822-14.908-38.866-34.887-53.608-40.098c-16.336-6.343-35.344-0.148-38.763,18.939
		c-3.156-5.62-40.678-101.744-78.475-115.849c-2.884-1.204-6.058-1.169-9.06-1.822c1.193-3.317,2.433-6.622,3.18-10.069
		c-3.999,3.69-7.796,7.601-11.76,11.333c-68.908,5.283-137.161-62.844-157.228-153.935c-0.54-2.142-0.997-4.325-0.854-6.527
		c6.177-33.092,13.026-81.115,13.231-87.327c-0.368,0.73-0.688,1.483-0.938,2.273c-6.853,23.496-13.682,47.01-21.04,70.358
		c-69.956,60.009-185.709,59.301-277.058,48.642c0.959-59.262-3.839-118.456-5.091-123.485
		c-0.969,10.967-11.351,107.435-29.649,200.287c-38.26,194.631-105.012,369.53-260.653,490.944
		c-6.972-22.025-17.302-42.821-28.984-62.692c4.162-3.506,44.824-62.839,73.164-125.514
		c57.802-125.764,86.688-276.482,50.802-409.319c-6.453-29.229-37.675-50.194-66.845-54.777c-6.177-1.287-12.507-0.854-18.767-0.89
		c-27.99,1.723-46.192,21.33-46.951,47.87c-2.403,5.091-4.349,10.372-6.544,15.551c-15.057,35.982-32.826,72.529-34.77,75.484
		c6.191-68.971-5.176-134.345-20.731-143.724c4.877,59.16-4.127,125.685-5.844,189.921c-0.089,2.142,0.13,4.462-0.991,6.402
		c-7.363,13.077-14.827,26.095-22.689,38.875c-4.213-12.759-20.864-51.078-25.792-133.637
		c-0.381-13.939-5.804-81.816,12.395-196.442c0.308-1.988,0.433-3.993,0.623-5.981c2.914-9.844,16.214-47.024,20.63-101.431
		c-4.701,11.892-31.237,189.658-231.662,281.449c-102.254,46.839-226.12,58.201-340.706,26.475
		c-107.698-25.322-159.73,4.204-181.662-39.593c86.728,8.8,152.973-17.824,166.526-54.919c3.641-10.887,1.965-14.406,1.911-18.126
		c-6.194,6.082-13.362,11.149-21.277,14.727c-21.342,10.001-51.856,15.565-75.158,17.403c-2.812-1.934-6.171-2.717-9.226-4.124
		c-89.41-37.049-129.52-111.796-115.273-194.312c62.352,56.212,156.794,1.307,156.463-84.823c8.088,4.95,24.295,19.404,65.57,2.278
		c31.095-15.083,56.94-56.994,47.823-72.369c-4.165-7.268-8.123-14.667-12.674-21.704c3.127-5.625,6.295-11.232,9.891-16.572
		c2.112,0.92,4.331,0.071,6.444-0.392c46.404-10.579,75.769-27.847,114.597-52.19c2.522-1.448,4.705-3.477,7.44-4.539
		c-0.588,1.747-16.048,25.814-14.187,62.354c0.576,5.512,1.068,11.267,3.857,16.192c6.514,32.529,13.063,71.585,15.148,77.697
		c4.848,51.843,22.235,75.988,78.819,78.433c5.471,0.131,10.965,0.433,16.435,0.113c15.664-2.023,31.999-6.254,43.901-17.236
		c9.226,4.77,19.966,6.01,30.195,4.77c52.626-8.989,65.225-75.629,12.751-91.807c-9.826-3.162-20.346-3.602-30.515-2.059
		c-8.826-25.452-28.62-43.348-53.359-51.502c1.311-1.733,3.607-2.005,5.536-2.676c26.348-7.643,60.093,14.032,68.032,16.702
		c-0.053-4.834,1.278-19.62-13.463-38.638c0.166-0.32,0.492-0.961,0.659-1.282c13.265,23.44,47.404,21.17,68.388,12.769
		c33.957-13.73,38.419-57.37-8.087-70.779c-7.27-2.107-31.413-3.823-46.672,8.888c-7.064,5.609-8.04,11.484-13.142,18.601
		c-5.085-7.666-10.639-15.219-17.901-20.974c-19.996-16.856-45.105-23.865-71.028-26.38c-42.278-3.705-46.101,2.931-52.807,4.931
		c-0.172-0.125-0.51-0.386-0.682-0.51c2.445-3.851,5.411-7.345,7.951-11.137c15.071-21.11,29.435-44.657,91.184-44.186
		c7.12,20.927,16.946,41.047,30.201,58.8c2.545,3.251,4.8,6.788,7.862,9.606C655.037,454.14,598.487,333.329,659.141,197.401
		 M818.748,463.572c-24.308,3.179-33.1,23.224-31.423,29.863c1.305,2.925,4.32,4.723,7.239,5.779
		c2.967,1.145,6.206,0.724,9.274,1.394c12.785,2.925,30.348-3.038,37.641-13.73c1.798-2.516,4.082-4.61,6.289-6.758
		c2.023-2.005,3.222-5.589,1.169-7.98C843.37,466.366,832.615,461.951,818.748,463.572 M924.736,484.677
		c-15.155,7.278-19.306,17.928-21.419,20.268c-4.154,0.324-11.326-3.946-32.331,1.976c-8.455,2.64-17.005,6.426-22.915,13.267
		c-2.83,3.317-4.943,7.535-4.794,11.991c-0.434,11.639,13.812,30.069,34.236,22.772c4.425-1.745,16.477,1.936,37.309-13.718
		c5.008-3.918,13.677-5.286,12.982-17.254c15.429-2.387,19.318-7.74,31.554-14.75c2.628-1.661,4.937-3.785,7.547-5.5
		c2-1.329,4.533-1.234,6.687-2.213c12.984-5.801,9.168-17.664,2.777-20.969c-5.838-3.554-12.893-4.195-19.58-4.254
		C945.574,475.955,934.485,479.266,924.736,484.677 M1159.923,500.952c-6.255,0.838-13.564,3.547-13.309,9.838
		c0.159,5.884-2.917,9.182,4.735,17.883c12.992,12.23,30.512,20.872,42.305,22.932c6.99,1.644,14.175,0.315,21.259,0.854
		c4.396,0.397,10.73-2.209,10.787-6.634c0.101-1.845-2.189-3.073-1.489-4.954c0.677-2.225,0.451-4.901-1.489-6.426
		c-3.323-2.593-6.082-5.803-9.434-8.36c-20.901-17.968-33.718-19.55-37.529-21.853
		C1171.125,501.243,1165.328,500.395,1159.923,500.952 M1025.829,534.209c-7.941,2.481-11.382,12.079-3.014,16.198
		c3.625,1.98,14.357,3.719,19.04-4.349C1043.945,540.853,1038.747,531.502,1025.829,534.209 M764.773,586.399
		c-9.338,0.696-21.512,6.446-18.15,15.326c3.606,8.743,42.436,17.779,47.224-5.352c0.516-2.302-0.546-4.913-2.694-5.981
		c-3.934-2.795-8.971-2.628-13.504-1.893C773.453,587.395,769.187,585.942,764.773,586.399 M1439.983,586.405
		c-8.653,0.421-17.284,6.757-12.958,14.246c11.925,21.305,47.81,17.767,43.177,1.994c-1.026-4.147-4.503-6.972-7.482-9.76
		C1456.348,587.929,1447.999,585.609,1439.983,586.405 M1195.529,588.778c-4.569,0.783-9.268,1.916-13.042,4.735
		c-8.419,5.441-10.906,17.497-6.592,26.297c1.922,4.699,5.886,8.075,8.431,12.383c5.655,10.698,15.878,18.251,26.819,22.962
		c39.227,15.521,66.59-5.82,69.391-20.523c2.088-11.199-8.671-27.227-31.203-30.231c-2.059-0.326-4.349-0.172-6.082-1.495
		c-5.121-3.667-11.226-5.702-17.337-6.984c-2.089-0.445-3.815-1.739-5.666-2.688
		C1212.658,589.407,1203.978,587.745,1195.529,588.778 M1046.583,594.682c-3.696,0.487-7.096,2.112-10.271,3.981
		c-4.652,3.038-7.755,8.603-7.298,14.216c0.726,12.4,20.673,18.703,34.663,14.311c13.756-4.486,13.876-17.035,8.651-23.65
		C1066.158,596.165,1055.929,593.08,1046.583,594.682 M885.208,609.551c-9.775,1.297-28.756,6.58-39.439,17.497
		c-4.248,5.037-8.865,10.152-10.609,16.679c-0.849,3.4-2.605,6.556-2.901,10.093c-1.48,12.106,12.506,21.211,24.902,23.099
		c6.404,1.268,23.744,1.075,35.482-2.967c15.016-4.701,34.023-17.538,36.555-32.942c1.763-10.463-4.582-24.911-22.025-30.147
		C900.077,608.678,892.518,608.868,885.208,609.551 M1370.059,648.177c-3.382,2.267-5.31,5.939-7.191,9.422
		c-0.991,2.765-1.317,5.749-1.543,8.675c-0.225,4.83,2.717,8.882,5.132,12.798c3.085,4.278,7.731,6.966,12.193,9.588
		c-2.522,0.154-5.061,0.309-7.494,1.003c-10.199,2.892-17.053,12.109-12.068,20.518c4.088,5.957,11.273,9.22,18.381,9.547
		c14.3,0.576,20.927-0.501,30.13-8.882c1.157,1.94,2.385,4.005,4.486,5.079c5.12,3.263,11.469,1.976,17.201,2.302
		c16.898,2.475,31.019,4.754,34.562-4.699c0.955-2.676-0.089-5.66-1.964-7.654c-3.133-3.103-7.589-4.153-11.612-5.565
		c-0.807-1.673-1.638-3.667-3.613-4.165c-5.447-1.988-10.858,2.195-16.37,1.021c-9.778-0.723-14.092-0.12-20.725,5.916
		c-0.771-1.792-1.424-3.643-2.551-5.233c-1.038-1.691-2.854-2.652-3.999-4.219c0.19-0.089,0.581-0.273,0.777-0.362
		c13.161-0.996,29.95-7.203,34.455-19.622c0.967-3.726,1.994-7.678,0.914-11.493C1436.507,640.31,1394.259,627.306,1370.059,648.177
		 M337.701,667.211c-22.069,5.029-43.357,17.447-61.648,30.925c-2.688,1.822-4.693,4.438-7.334,6.319
		c-3.507,3.204-6.723,6.723-10.152,10.016c-2.385,2.184-4.082,4.99-6.521,7.126c-69.808,78.65-50.076,159.788,13.522,163.037
		c0.991,0.077,1.863-0.315,2.468-1.092c6.901,0.67,14.068,0.421,20.702-1.685c-45.637-2.309-71.342-37.979-40.869-96.156
		c12.035-22.585,33.041-48.006,46.713-59.559c57.735-46.569,97.209-25.161,100.048,16.305c1.834,26.34-11.13,48.406-13.433,53.827
		c3.673-3.305,6.337-7.559,9.381-11.422c3.137,0.106,23.697-28.595,24.689-57.933c0.873-4.448,1.093-29.721-16.964-47.437
		c-1.882-1.532-11.695-10.834-26.403-13.362C362.142,663.555,347.003,664.825,337.701,667.211 M1476.741,676.004
		c-4.065,0.835-9.521,5.295-9.298,9.849c-0.627,8.447,15.177,13.058,22.624,4.622c3.905-4.953,3.105-12.242-4.664-13.469
		C1482.514,676.639,1479.672,675.162,1476.741,676.004 M751.684,676.568c-8.905,1.656-10.107,8.517-7.446,11.796
		c7.586,9.754,24.275,7.965,26.012,0.825c0.599-1.851-1.109-3.251-2.29-4.373c-1.869-1.483-1.905-4.236-3.827-5.666
		C760.744,676.289,755.908,675.832,751.684,676.568 M1159.917,681.338c-33.188,6.283-30.186,32.261-16.275,40.199
		c14.026,8.029,19.068,12.288,37.677,9.665c7.788-1.669,18.609-7.155,20.518-16.91c0.848-2.961,0.279-6.046-0.51-8.942
		c-1.621-5.655-3.116-15.043-16.928-21.046C1176.779,680.798,1168.128,680.508,1159.917,681.338 M1339.11,715.17
		c-26.738,4.307-33.442,24.556-19.005,37.546c10.963,9.36,42.22,13.112,52.7,9.161c17.632-6.176,18.481-20.652,12.199-27.786
		c-3.234-3.667-7.494-6.278-11.891-8.307C1367.259,723.112,1359.923,712.485,1339.11,715.17 M332.052,743.235
		c-11.078,0.534-21.645,5.263-30.219,12.14c-70.405,51.959-32.031,149.116,33.144,96.631c2.878-2.498,6.123-4.693,8.36-7.832
		c-5.374,2.524-23.079,15.232-41.13,12.157c-19.589-3.109-27.076-27.268-16.981-40.578c22.453,37.628,83.483,10.928,85.411-34.384
		C371.857,759.373,355.385,741.81,332.052,743.235 M996.162,745.431c-17.628,2.805-23.032,13.466-22.084,19.924
		c0.326,3.892,1.964,7.785,5.097,10.247c3.584,2.83,7.595,5.387,12.151,6.254c2.842,0.498,4.984,2.587,7.559,3.75
		c6.361,2.967,14.377,2.237,19.948-2.106c2.32-1.804,5.144-3.145,6.699-5.761c4.616-6.568,4.058-15.984-0.593-22.381
		C1021.799,750.374,1010.188,743.324,996.162,745.431 M1490.992,756.668c-6.071,1.732-5.697,8.089,1.21,9.624
		c5.518,1.27,11.006,3.667,16.78,3.014c1.335-0.297,3.37-0.475,3.643-2.16c-0.82-3.616-4.03-4.44-14.501-9.743
		C1495.959,756.229,1493.342,756.004,1490.992,756.668 M1200.715,833.084c-5.493,8.305,0.988,19.499,8.894,25.371
		c6.032,4.449,4.241,6.502,14.412,13.469c4.616,2.878,10.247,5.275,15.753,3.797c12.404-2.476,25.638-18.371,13.582-37.279
		C1239.718,819.373,1210.482,818.076,1200.715,833.084z"/>
	<path fill="#A59894" stroke="#A59894" stroke-width="0.75" d="M1320.948,328.22c23.907,4.746,59.808-0.332,83.346-4.242
		c-8.285,17.779-50.877,27.415-71.266,29.768c-50.132,6.164-97.724-17.502-103.199-17.984c-1.578,1.643-2.664,3.744-4.551,5.073
		c-9.215,6.829-21.793,7.986-32.574,4.699c-1.27-0.32-2.54-0.593-3.797-0.86c1.353,3.987,3.097,7.862,3.886,12.021
		c1.252,7.084,3.928,13.86,4.539,21.069c0.611,3.447,0.042,7.013,0.766,10.425c1.293,1.276,3.192,1.626,4.836,2.308
		c20.185,7.524,42.14,20.488,57.002,28.427c16.613,8.971,33.897,17.45,47.793,30.492c1.549,1.228,3.038,2.575,4.047,4.308
		c-19.723-2.382-84.671,5.863-182.338-36.615c-56.474-23.77-117.396-63.705-197.439-72.162c-0.059,0.225-0.178,0.682-0.243,0.914
		c-1.686-3.407-4.898-9.739-3.815-16.4c0.848-5.571,4.492-10.354,9.12-13.415c11.844-8.617,24.009-3.942,29.465-4.883
		c20.062-2.767,36.739,5.694,46.701,9.992c1.649-3.673,2.361-7.702,4.236-11.285c10.212-22.292,31.94-34.036,55.613-36.431
		c0.967-0.267,2.545-0.053,3.008-1.151c-1.477-4.324-6.629-11.518,2.456-22.06c-20.84-10.681-53.711-13.533-71.562-17.403
		c-19.975-3.026-15.163-3.892-55.495,19.936c-20.081,11.989-19.064,11.208-20.998,14.596c-4.345,7.65-13.936,17.828-20.34,22.974
		c-12.404,10.445-82.521,62.634-104.848,58.954c13.052-37.046,20.304-75.246,19.278-122.026c14.198-4.13,28.575-7.636,42.975-11.006
		C1119.699,158.59,1115.441,285.691,1320.948,328.22z"/>
	<path fill="#F5B4BD" stroke="#F5B4BD" stroke-width="0.75" d="M726.425,210.585c3.619,11.238,6.366,22.743,9.298,34.182
		c6.808,26.793,13.826,61.124,10.953,88.686c-2.924,33.526-23.072,67.454-33.565,74.909c-9.408,7.305-18.652,6.055-24.095,0.576
		c-7.725-6.871-10.68-17.314-12.591-27.11c-4.841-28.851-6.39-56.644,1.127-84.966C685.578,265.354,705.403,234.146,726.425,210.585
		z"/>
	<path fill="#B6ACA9" stroke="#B6ACA9" stroke-width="0.75" d="M1006.978,232.824c17.859,3.871,50.728,6.724,71.562,17.403
		c-8.999,10.443-4.028,17.461-2.456,22.06c-0.463,1.098-2.041,0.884-3.008,1.151c-23.626,2.39-45.385,14.105-55.613,36.431
		c-1.875,3.584-2.587,7.613-4.236,11.285c-9.914-4.277-26.618-12.762-46.701-9.992c-5.124,0.884-17.713-3.667-29.465,4.883
		c-4.628,3.062-8.271,7.844-9.12,13.415c-0.825,5.073,0.801,10.17,2.979,14.703c-2.207,0.801-4.521,0.077-6.764-0.053
		c-4.343-0.504-8.722-0.617-13.065-1.092c-3.501-0.344-7.031,0.101-10.52-0.344c-7.36-0.98-42.104-0.437-76.718,4.361
		c-1.074,0.19-2.124-0.095-3.115-0.439c17.899-5.754,44.842-23.775,60.034-34.609c13.982-9.918,39.367-26.408,49.716-44.631
		c1.878-3.29,0.515-2.368,20.998-14.596C991.833,228.921,987.014,229.799,1006.978,232.824z"/>
	<path fill="#8F817C" stroke="#8F817C" stroke-width="0.75" d="M2171.561,241.866c1.198,0.558,0.653,2.1,0.938,3.157
		c9.795,75.942-30.486,162.139-31.494,167.41c2.641-2.03,18.316-24.329,20.814-28.005c4.769-6.879-0.58-2.054,20.808-17.147
		c3.548-2.296,6.823-5.026,10.532-7.067c-0.876,27.247-24.032,54.206-55.032,68.168c-33.899,15.318-74.668,13.202-82.219,11.315
		c2.64-1.632,5.66-2.474,8.467-3.785c41.469-17.91,70.531-39.819,84.521-82.242c0.973-3.204,2.332-6.307,2.854-9.63
		c-5.329,6.623-22.754,42.282-49.899,62.277c-18.625,13.854-41.065,21.152-63.303,26.866c-3.269,0.742-6.467,1.869-9.82,2.089
		c2.427-3.281,5.619-5.88,8.212-9.025c3.815-4.486,8.449-8.158,12.608-12.306c36.732-34.404,76.52-51.008,91.498-69.889
		c23.956-25.956,28.322-63.778,31.049-99.057C2172.057,244.181,2171.855,243.319,2171.561,241.866z"/>
	<path fill="#A9A2A0" stroke="#A9A2A0" stroke-width="0.75" d="M2171.668,242.394c0.154,0.854,0.385,1.709,0.427,2.599
		c-9.675,125.138-51.456,102.359-122.548,168.947c-4.159,4.147-8.793,7.82-12.608,12.306c-2.593,3.145-5.785,5.743-8.212,9.025
		c-0.225,0.208-0.682,0.623-0.908,0.831c-34.161,25.117-72.117,53.529-113.927,62.306c-52.092,10.365-97.578-9.502-144.05-36.407
		c-1.513-2.189-2.807-4.563-3.661-7.078c123.167,37.42,246.882,7.815,315.24-108.201c3.714-6.444,7.541-12.846,10.526-19.669
		c-0.955,0.7-1.898,1.394-2.842,2.083c-0.965-1.027,2.103-2.688-46.523,32.135c-2.634,1.727-4.978,3.898-7.82,5.269
		c3.231-23.94,16.272-38.615,20.885-42.026c1.65-1.276,2.973-2.907,4.563-4.266c3.449-0.942,31.811-21.833,35.784-24.813
		C2113.221,282.33,2138.204,262.195,2171.668,242.394z"/>
	<path fill="#B6ACA9" stroke="#B6ACA9" stroke-width="0.75" d="M2130.366,259.737c3.424-1.733,6.634-3.916,10.229-5.316
		c-3.524,3.121-7.66,5.482-11.38,8.36c-36.75,26.162-70.188,59.117-73.568,61.731c-3.668,2.712-17.343,16.547-20.945,42.453
		c-7.589,5.109-14.786,10.805-22.446,15.801C2016.169,305.885,2072.106,290.775,2130.366,259.737z"/>
	<path fill="#8C725E" stroke="#8C725E" stroke-width="0.75" d="M121.976,297.26c10.456-4.367,15.412,0.637,21.2,10.822
		c25.307,47.715,45.869,222.95,97.39,292.527c1.871-23.399,7.675-77.519,16.566-110.669c12.593-44.035,25.579-49.696,64.217-1.074
		c28.293,36.974,23.915,39.874,39.071,58.794c4.551,7.037,8.508,14.436,12.674,21.704c9.082,15.316-16.577,57.213-47.823,72.369
		c-40.444,16.781-56.368,3.352-65.57-2.278c0.332,86.267-94.209,140.946-156.463,84.823c-10.85-10.866-9.671-12.331-18.874-37.861
		c-2.527-17.453-41.353-103.373-27.495-236.759c5.409-45.102,20.466-107.323,49.822-140.419
		C111.094,304.481,115.953,299.871,121.976,297.26 M121.329,331.543c-0.991,0.7-2.427,1.216-2.818,2.462
		c-24.819,14.613-90,199.215-0.267,357.378c2.591,4.409,3.788,10.657,17.13,19.064c4.041,2.326,8.259,4.616,12.869,5.536
		c0.85,1,9.298,2.54,14.098,2.729c23.231,4.381,73.869-22.759,72.375-65.487c-0.312-16.108-7.05-20.752-9.369-25.697
		c-50.87-89.372-68.206-178.111-80.587-245.113c-5.399-27.406-8.803-47.496-16.821-51.941
		C125.749,329.211,123.305,330.445,121.329,331.543 M284.591,488.878l-0.024,0.487c-14.073,3.855-17.548,82.699-17.883,97.408
		c-0.111,12.179-3.46,24.192,6.592,30.8c17.225,11.528,57.268-2.73,68.174-21.936c5.769-10.191,0.226-17.966-2.189-23.864
		c-6.443-14.259-37.977-83.613-53.626-82.937C285.375,488.842,284.853,488.866,284.591,488.878z"/>
	<path fill="#8F817C" stroke="#8F817C" stroke-width="0.75" d="M565.483,308.67c2.735,8.36,5.287,16.785,7.435,25.318
		c-3.686,1.128-58.396,11.142-86.835,49.822c-3.643-3.014-6.503-6.829-9.505-10.449c-13.279-16.91-23.152-36.194-31.643-55.863
		c3.566-0.368,6.901-1.744,10.366-2.587C523.505,296.803,557.317,307.968,565.483,308.67z"/>
	<path fill="#B6ACA9" stroke="#B6ACA9" stroke-width="0.75" d="M1441.692,316.911c89.03-16.994,183.534-33.755,288.444,170.691
		c-3.884-0.095-17.833-6.203-30.978,1.964c-10.759,6.458-10.909,20.081-6.782,27.94c9.086,17.811,36.917,20.206,55.162,12.739
		c1.021-0.403,2.059-0.783,3.121-1.151c10.29,21.759,14.967,31.997,21.135,53.578c-1.893,0.404-3.691-0.433-5.459-0.908
		c-11.232-3.139-16.428-1.636-22.648-2.356c-38.27-4.181-58.657,44.323-32.052,73.894c-4.669,3.56-9.956,6.817-12.757,12.187
		c-1.157,2.551-3.174,4.687-3.916,7.411c-0.854,3.228,1.044,6.165,2.011,9.125c4.534,16.593,25.782,18.47,42.786,16.032
		c14.406-1.863,28.29-8.639,38.015-19.521c1.472-1.661,2.51-3.964,1.922-6.206c-0.48-2.421-2.516-3.993-4.254-5.524
		c3.803-2.166,7.796-3.999,11.398-6.521c13.883,114.789,0.434,213.252-5.803,265.88c3.08-6.731,16.874-41.244,29.566-95.705
		c99.997,17.186,186.32,260.604,161.987,383.005c-8.241-10.652-51.152-109.265-64.282-137.007
		c-13.347-25.438-42.98-94.927-81.097-92.181c-42.815-0.559-71.464-17.841-91.908-53.412c-6.052-10.773-22.767-48.685-23.306-50.178
		c0.854-0.142,1.732-0.261,2.634-0.356c5.132,0.35,10.858-0.92,14.442-4.842c3.145-4.592,0.89-10.977-2.623-14.709
		c-6.995-6.224-17.284-6.995-26.018-4.67c-3.609-7.703-12.929-27.204-13.326-29.02c28.752-0.706,53.116-16.572,58.444-24.724
		c2.759-5.008,0.261-11.576-4.622-14.204c-5.316-2.772-31.671-13.539-51.371-12.881c-8.247-0.303-16.447,1.264-24.238,3.875
		c-0.415-0.095-1.24-0.297-1.649-0.392c-1.831-3.567-23.303-46.392-25.97-52.119c6.117-2.136,12.128-4.563,18.215-6.812
		c4.901-1.744,8.882-5.696,10.888-10.466c1.567-3.774,0.884-8.348-1.744-11.475c-12.709-14.625-33.825-18.384-53.127-18.601
		c-5.5-10.739-11.831-21.04-17.794-31.524c-2.355-4.308-5.411-8.241-7.28-12.792c3.435-0.16,6.96,0.398,10.33-0.593
		c11.073-1.943,21.228-6.451,25.941-16.75c10.029-23.193-33.633-43.82-60.52-19.533c-9.606-14.175-19.877-27.905-30.776-41.106
		c-1.768-2.183-4.106-4.052-4.931-6.835c3.151-1.816,5.969-4.628,6.859-8.259c0.659-2.658-0.664-5.239-1.78-7.565
		c-8.819-18.067-24.1-26.872-44.678-22.268c-48.55-40.905-103.11-54.438-166.556-57.892c-3.524-0.53-6.703-0.153-8.971-0.451
		c-1.009-1.733-2.498-3.079-4.047-4.308c-13.896-13.042-31.18-21.52-47.793-30.492c-14.969-7.996-36.858-20.918-57.002-28.427
		c-1.644-0.682-3.542-1.032-4.836-2.308c-0.724-3.412-0.154-6.978-0.766-10.425c-0.611-7.209-3.287-13.985-4.539-21.069
		c-0.789-4.159-2.534-8.034-3.886-12.021c5.329,1.131,21.771,6.982,36.372-3.839c1.887-1.329,2.973-3.43,4.551-5.073
		c9.137,0.804,78.024,38.909,154.368,4.408c7.743-3.732,16.275-7.992,20.096-16.192
		C1416.784,321.741,1429.238,319.332,1441.692,316.911 M1538.489,340.781c-54.913,5.148-73.956,59.067-22.06,111.767
		c8.67,8.948,20.492,14.557,25.502,18.399c45.397,30.61,119.433,8.484,106.13-34.959c-1.442-3.809-0.255-7.897-0.712-11.831
		c-2.074-22.839-18.992-37.882-27.958-46.69C1596.957,357.776,1573.183,337.643,1538.489,340.781 M1420.415,373.421
		c-49.807,5.056-59.676,44.962-34.182,64.543c7.019,5.571,15.486,9.321,24.333,10.769c3.958,0.688,7.974,0.326,11.95-0.042
		c4.705,0.682,16.029,3.871,32.005-2.071c3.5-1.431,18.157-3.654,24.724-14.382c5.221-7.826,4.865-18.115,1.721-26.665
		C1474.037,382.435,1445.837,371.208,1420.415,373.421 M1631.999,557.693c3.032,1.537,6.574,1.46,9.671,2.771
		c1.335,1.649,2.065,3.786,3.815,5.115c6.022,4.913,15.795,4.48,21.36-0.932c2.361-2.314,2.029-5.72,1.952-8.728
		c0.972-3.704,5.676-9.181,0.018-16.637c-2.367-3.376-6.349-4.948-9.927-6.657C1626.464,519.84,1610.413,548.964,1631.999,557.693z"
		/>
	<path fill="#B6ACA9" stroke="#B6ACA9" stroke-width="0.75" d="M2091.947,327.051c-8.573,19.602-31.478,53.584-49.502,70.886
		c-4.896,4.863-16.316,17.201-35.82,30.628c-68.331,46.986-159.053,51.084-240.444,26.356c-2.332-3.127-3.744-6.871-5.755-10.211
		c-5.083-9.239-15.682-27.679-15.682-27.679c11.247,4.643,83.533,46.399,161.411,37.333c40.474-4.707,76.559-23.401,102.641-54.498
		c3.194-4.129-1.016-0.176,63.493-56.302C2080.14,336.874,2084.194,332.734,2091.947,327.051z"/>
	<path fill="#DED39E" stroke="#DED39E" stroke-width="0.75" d="M121.329,331.543c1.976-1.098,4.42-2.332,6.61-1.068
		c-1.412,16.157-1.632,32.396-2.225,48.6c-2.014,113.466,12.768,235.893,80.195,325.86c-28.995,21.346-56.816,12.048-57.666,11.048
		c-0.908-4.379-2.735-8.485-3.869-12.798C95.188,550.37,99.801,491.435,97.696,478.791c-0.096-9.583-0.351-38.734,0.943-48.137
		c4.01-56.214,18.697-89.613,19.871-96.649C118.902,332.759,120.338,332.243,121.329,331.543z"/>
	<path fill="#B1A17A" stroke="#B1A17A" stroke-width="0.75" d="M127.939,330.475c1.092,0.605,2.278,1.181,2.99,2.267
		c3.329,4.575,4.931,10.087,6.503,15.45c13.359,50.188,21.891,168.365,93.065,287.252c10.129,19.495,2.795,51.059-24.588,69.492
		c-67.733-90.375-82.191-213.415-80.195-325.86C126.307,362.871,126.527,346.631,127.939,330.475z"/>
	<path fill="#E1D5A7" stroke="#E1D5A7" stroke-width="0.75" d="M118.511,334.005c-0.765,4.586-2.706,8.847-4.047,13.273
		c-36.748,115.335-7.437,239.874,29.91,355.907c1.133,4.314,2.961,8.419,3.869,12.798c-7.667-1.529-20.087-8.853-25.757-16.993
		c-1.792-2.32-2.771-5.103-4.242-7.607c-47.504-83.73-44.845-164.342-46.108-176.98c-0.404-56.115,11.434-123.815,35.268-165.921
		C109.479,344.831,115.042,336.048,118.511,334.005z"/>
	<path fill="#8F817C" stroke="#8F817C" stroke-width="0.75" d="M772.266,337.447c9.409,7.047,8.201,6.517,10.615,6.183
		c-15.196,57.384-46.23,107.854-50.41,113.191c3.338-10.617,24.977-55.814,35.476-98.63
		C769.632,351.325,770.747,344.341,772.266,337.447z"/>
	<path fill="#A59894" stroke="#A59894" stroke-width="0.75" d="M1578.782,348.103c12.748,5.783,25.689,16.269,40.608,29.364
		c8.293,8.146,25.851,23.494,27.958,46.69c0.457,3.934-0.73,8.022,0.712,11.831c13.315,43.485-60.767,65.546-106.13,34.959
		c-4.881-3.744-16.921-9.543-25.502-18.399c-3.441-3.495-7.096-6.794-10.021-10.745c-14.734-19.12-25.145-41.876-18.477-64.964
		c3.109-10.686,10.419-19.978,19.818-25.881C1525.039,339.456,1552.233,335.996,1578.782,348.103z"/>
	<path fill="#958C88" stroke="#958C88" stroke-width="0.75" d="M931.998,344.946c80.033,8.456,140.871,48.353,197.439,72.162
		c98.195,42.707,163.089,34.084,183.24,36.733c1.353,2.569,3.37,4.717,4.652,7.328c0.967,1.762,1.026,3.94,2.178,5.589
		c4.844,0.776,28.459-1.041,55.097,21.402c7,6.677,24.425,22.126,22.974,48.209c-1.273,20.269-14.941,38.584-39.688,45.645
		c-4.509,1.341-9.238,1.448-13.813,2.385c2.29,1.905,5.37,2.456,7.696,4.325c2.842,2.255,5.886,4.486,7.69,7.731
		c1.383,3.139,6.046,2.64,7.197,5.963c0.991,3.156-2.094,5.945-4.948,6.539c-4.99,0.842-10.057,0.018-15.065-0.148
		c-17.225-0.765-33.969-5.334-50.386-10.288c-7.494-2.688-15.444-6.61-19.082-14.121c-1.311-3.257-2.528-7.298-0.374-10.472
		c2.041-3.809,5.815-6.277,9.867-7.541c-1.551-1.896-13.068-10.095-17.723-24.19c-2.591-7.841-5.445-10.526-5.566-26.564
		c-7.63,1.62-15.943,2.32-23.247-0.949c-6.586-2.896-13.243-7.506-15.641-14.614c-0.653-1.632-0.605-3.904-2.48-4.676
		c-15.979-7.761-31.008-17.325-45.705-27.264c-8.348-5.69-16.726-11.772-22.689-20.061c-1.406-1.816-2.213-4.171-4.076-5.565
		c-2.059-0.024-4.142,0.32-6.028,1.127c-0.943,0.866,0.499,1.608,0.926,2.356c7.448,7.985,10.152,29.734-13.789,35.772
		c-10.093,2.29-20.785,1.299-30.498-2.154c-4.848-1.293-9.832-2.071-14.531-3.892c-18.972-6.861-31.708-19.116-37.861-24.404
		c-13.935-12.653-12.69-25.532-5.732-31.459c2.937-2.842,6.812-4.29,10.478-5.921c-0.611-0.427-1.181-1.003-1.958-0.967
		c-7.506-0.279-15.047,0.409-22.517-0.546c-8.588-0.673,0.094-0.52-39.605,19.094c-3.667,1.952-7.666,3.24-11.202,5.423
		c-0.191,4.62,3.708,8.93-8.829,19.645c-24.393,19.012-57.361,22.78-79.922,15.154c-36.261-12.934-33.56-51.065-10.484-58.675
		c3.4-1.151,7.168-0.932,10.413-2.611c10.211-5.002,21.491-7.684,32.847-8.01c3.234,0.136,5.471-2.379,7.903-4.088
		c17.007-11.872,19.964-11.241,26.101-16.833c-1.984-2.415-14.72-11.854-20.761-26.392c-1.282-2.973-1.685-6.218-2.741-9.262
		C931.82,345.629,931.939,345.172,931.998,344.946z"/>
	<path fill="#B6ACA9" stroke="#B6ACA9" stroke-width="0.75" d="M610.22,357.899c2.451,12.953,5.399,25.834,9.582,38.353
		c-58.035-0.443-73.187,18.978-91.184,44.186c-2.539,3.791-5.506,7.286-7.951,11.137c0.172,0.125,0.51,0.386,0.682,0.51
		c2.727-0.813,11.614-6.622,29.002-5.939c31.131-0.836,69.14,5.729,94.833,27.388c7.262,5.755,12.816,13.309,17.901,20.974
		c0.018,0.19,0.053,0.576,0.071,0.765c-5.689,10.487-4.537,22.841-0.558,29.756c-0.166,0.32-0.493,0.961-0.659,1.282
		c-31.599-39.793-104.083-61.038-145.1-25.258c-19.194,16.531-24.485,38.44-28.379,51.46c-2.789-4.925-3.281-10.68-3.857-16.192
		c-1.857-36.457,13.521-60.376,14.187-62.354c-2.735,1.062-4.919,3.091-7.44,4.539c-38.718,24.274-68.103,41.59-114.597,52.19
		c-2.112,0.463-4.331,1.311-6.444,0.392c22.686-34.4,52.517-54.01,85.832-61.659c14.756-3.346,27.015-14.839,32.177-28.949
		C507.333,386.705,561.747,356.986,610.22,357.899z"/>
	<path fill="#A59894" stroke="#A59894" stroke-width="0.75" d="M1480.965,405.573c3.145,8.55,3.501,18.838-1.721,26.665
		c-6.567,10.727-21.229,12.954-24.724,14.382c-15.998,5.95-27.344,2.747-32.005,2.071c-3.975,0.368-7.992,0.73-11.95,0.042
		c-8.847-1.448-17.313-5.198-24.333-10.769c-15.786-12.125-17.536-31.803-6.592-45.414c3.459-4.901,8.615-8.182,13.659-11.25
		C1427.713,363.217,1472.312,376.675,1480.965,405.573z"/>
	<path fill="#8F817C" stroke="#8F817C" stroke-width="0.75" d="M2027.819,436.101c-13.454,52.485-108.161,110.695-220.525,65.558
		c-7.832-3.275-15.712-6.568-23.104-10.728c-3.174-5.494-5.571-11.422-8.473-17.076c-1.911-3.975-4.379-7.69-5.874-11.855
		c46.087,26.682,91.784,46.806,144.05,36.407C1955.708,489.628,1993.679,461.202,2027.819,436.101z"/>
	<path fill="#958C88" stroke="#958C88" stroke-width="0.75" d="M848.937,472.14c2.053,2.391,0.854,5.975-1.169,7.98
		c-2.207,2.148-4.492,4.242-6.289,6.758c-7.3,10.701-24.865,16.653-37.641,13.73c-3.067-0.67-6.307-0.249-9.274-1.394
		c-2.919-1.056-5.933-2.854-7.239-5.779c-1.383-5.474,4.923-21.839,22.381-27.673C825.236,460.249,841.342,464.263,848.937,472.14z"
		/>
	<path fill="#958C88" stroke="#958C88" stroke-width="0.75" d="M676.229,475.908c14.968-12.47,38.949-11.126,46.672-8.888
		c38.439,11.083,39.126,40.386,27.673,55.922c-13.742,21.139-57.38,25.68-74.481,15.278c-0.895-16.286-6.676-33.425-12.935-42.946
		c-0.018-0.19-0.053-0.576-0.071-0.765C668.242,487.318,669.168,481.514,676.229,475.908z"/>
	<path fill="#958C88" stroke="#958C88" stroke-width="0.75" d="M976.368,480.547c6.307,3.262,10.315,15.12-2.777,20.969
		c-2.154,0.979-4.687,0.884-6.687,2.213c-2.611,1.715-4.919,3.839-7.547,5.5c-12.222,7.003-16.119,12.362-31.554,14.75
		c0.695,11.967-7.976,13.337-12.982,17.254c-20.968,15.756-32.675,11.891-37.309,13.718c-6.361,2.272-13.73,2.266-19.829-0.771
		c-7.277-3.431-22.166-19.28-9.612-33.992c10.382-12.019,35.165-18.489,50.534-15.765c1.56,0.202,3.115,0.647,4.711,0.522
		c1.549-1.715,2.403-3.952,3.875-5.749C921.508,478.732,959.47,470.261,976.368,480.547z"/>
	<path fill="#5B5A5A" stroke="#5B5A5A" stroke-width="0.75" d="M675.392,561.734c-0.142,0.872-0.326,1.744-0.492,2.628
		c-4.349-8.063-9.108-15.973-15.077-22.968c-36.627-44.16-114.309-73.465-164.105,0.202c-2.314,3.305-4.165,6.906-6.491,10.205
		c-0.03-0.338-0.089-1.003-0.119-1.341C518.186,429.787,676.073,493.948,675.392,561.734z"/>
	<path fill="#A59894" stroke="#A59894" stroke-width="0.75" d="M1721.023,485.804c3.079,0.368,5.975,1.721,9.114,1.798
		c7.274,13.611,13.979,27.519,20.524,41.492c-4.167,1.443-16.697,7.719-35.838,3.91c-14.78-2.853-27.201-13.952-24.499-30.96
		C1692.726,489.016,1707.773,483.64,1721.023,485.804z"/>
	<path fill="#DED39E" stroke="#DED39E" stroke-width="0.75" d="M284.591,488.878c0.261-0.012,0.783-0.036,1.044-0.042
		c0.345,5.535,7.744,66.637,22.387,120.726c0.771,2.795,1.661,5.571,2.13,8.443c-6.028,1.869-12.217,3.145-18.494,3.75
		c-7.517-37.716-7.768-91.525-7.826-92.525c-0.7-5.524-0.706-11.131,0.006-16.649c0.291-5.334-0.047-10.686,0.131-16.026
		c0.148-2.403,0.534-4.788,0.599-7.191L284.591,488.878z"/>
	<path fill="#B1A17A" stroke="#B1A17A" stroke-width="0.75" d="M285.636,488.836c17.506-0.757,56.484,88.444,57.85,93.041
		c3.946,17.388-17.804,30.924-33.334,36.128c-0.469-2.872-1.359-5.649-2.13-8.443C293.851,557.216,286.084,496.037,285.636,488.836z
		"/>
	<path fill="#E1D5A7" stroke="#E1D5A7" stroke-width="0.75" d="M284.568,489.364c-0.065,2.403-0.451,4.788-0.599,7.191
		c-0.178,5.34,0.16,10.692-0.131,16.026c-0.712,5.518-0.706,11.125-0.006,16.649c0.059,1,0.309,54.813,7.826,92.525
		c-6.313,0.208-13.018-0.593-18.382-4.183c-10.052-6.608-6.703-18.622-6.592-30.8c0.451-19.771,2.408-43.092,4.699-59.927
		C272.618,518.759,276.491,491.577,284.568,489.364z"/>
	<path fill="#A59894" stroke="#A59894" stroke-width="0.75" d="M663.158,495.274c6.221,9.465,12.036,26.589,12.935,42.946
		c-5.637-2.973-10.36-7.654-13.492-13.19C658.641,518.15,657.433,505.827,663.158,495.274z"/>
	<path fill="#8F817C" stroke="#8F817C" stroke-width="0.75" d="M659.823,541.394c5.969,6.995,10.727,14.905,15.077,22.968
		c0.166-0.884,0.35-1.756,0.492-2.628c-0.006,1.062,0,2.13,0.012,3.216c-7.863-2.644-41.671-24.35-68.032-16.702
		c-1.928,0.67-4.225,0.943-5.536,2.676c-27.577-9.092-61.268-5.329-81.364,16.613c-19.415,20.843-16.951,47.373-16.863,62.674
		c-2.035-5.965-8.825-46.119-15.148-77.697c0.208-0.694,0.421-1.377,0.647-2.053c0.03,0.338,0.089,1.003,0.119,1.341
		c2.598-3.685,11.833-21.092,27.163-33.998C561.085,478.554,624.661,499,659.823,541.394z"/>
	<path fill="#958C88" stroke="#958C88" stroke-width="0.75" d="M1175.759,504.233c3.773,2.28,16.662,3.915,37.529,21.853
		c3.352,2.557,6.111,5.767,9.434,8.36c1.94,1.525,2.166,4.201,1.489,6.426c-0.7,1.881,1.59,3.109,1.489,4.954
		c-0.057,4.42-6.385,7.031-10.787,6.634c-7.084-0.54-14.27,0.789-21.259-0.854c-11.788-2.06-29.309-10.698-42.305-22.932
		c-7.655-8.704-4.576-11.989-4.735-17.883c-0.101-2.486,1.282-4.853,3.24-6.307C1155.263,500.291,1167.616,498.978,1175.759,504.233
		z"/>
	<path fill="#A59894" stroke="#A59894" stroke-width="0.75" d="M1487.753,511.965c18.465-4.105,34.683,2.817,44.227,22.369
		c1.115,2.326,2.439,4.907,1.78,7.565c-0.981,4.003-4.084,6.73-7.701,8.74C1520.146,540.577,1488.755,512.913,1487.753,511.965z"/>
	<path fill="#958C88" stroke="#958C88" stroke-width="0.75" d="M1473.845,518.782c3.935-3.338,8.8-5.675,13.908-6.817
		c6.906,6.541,6.835,4.93,28.961,27.525c2.99,3.821,6.859,6.918,9.345,11.149c-9.44,4.984-20.761,6.052-31.067,3.441
		c-3.578-0.801-7.304-0.119-10.864-0.967c-2.807-0.67-5.655-1.549-7.939-3.352c-4.551-3.732-8.615-8.491-10.004-14.335
		c-0.985-3.993,1.092-7.779,2.011-11.564C1468.784,521.09,1471.964,520.467,1473.845,518.782z"/>
	<path fill="#A59894" stroke="#A59894" stroke-width="0.75" d="M1668.815,539.282c5.653,7.45,0.965,12.889-0.018,16.637
		c0.077,3.008,0.409,6.414-1.952,8.728c-5.565,5.411-15.338,5.844-21.36,0.932c-1.75-1.329-2.48-3.465-3.815-5.115
		c-3.097-1.311-6.639-1.234-9.671-2.771c-8.704-3.52-13.801-13.291-5.785-21.811
		C1638.527,523.213,1663.734,532.036,1668.815,539.282z"/>
	<path fill="#958C88" stroke="#958C88" stroke-width="0.75" d="M1036.491,534.962c3.75,2.112,7.156,6.633,5.364,11.095
		c-1.863,3.21-5.346,5.648-9.12,5.803c-12.059,0.982-15.718-5.833-14.626-9.992C1020.264,533.809,1030.444,532.119,1036.491,534.962
		z"/>
	<path fill="#070A0B" stroke="#070A0B" stroke-width="0.75" d="M645.613,583.23c-3.809,2.361-8.313,3.251-12.442,4.913
		c-2.795-10.158-9.903-19.372-19.74-23.508c-29.634-12.78-57.018,25.973-38.051,55.958c-4.432,3.72-8.924,7.375-13.131,11.356
		c-5.158-10.508-17.245-13.419-25.656-6.74c-10.625,8.356-10.036,26.733,1.928,33.974c-4.836,6.598-9.505,13.374-13.101,20.737
		c-1.062,2.089-1.501,4.61-3.382,6.183c-14.669-17.061-17.003-40.639-18.429-55.892c-0.091-15.737-2.546-41.838,16.863-62.674
		C551.659,533.486,617.499,541.534,645.613,583.23z"/>
	<path fill="#F8F9F9" stroke="#F8F9F9" stroke-width="0.75" d="M613.43,564.635c21.871,9.194,28.042,40.419,12.626,59.251
		c-13.675,17.151-38.753,15.621-50.677-3.293c-5.281-8.348-7.286-18.696-5.56-28.415
		C573.361,570.053,594.499,556.471,613.43,564.635z"/>
	<path fill="#A59894" stroke="#A59894" stroke-width="0.75" d="M1743.688,579.409c6.134,0.709,11.514-0.756,22.648,2.356
		c1.768,0.475,3.566,1.311,5.459,0.908c7.15,25.401,11.813,51.442,15.047,77.614c-3.602,2.522-7.595,4.355-11.398,6.521
		c1.739,1.531,3.774,3.103,4.254,5.524c0.587,2.243-0.451,4.545-1.922,6.206c-22.737,25.442-74.054,28.176-80.8,3.489
		c-0.967-2.961-2.866-5.898-2.011-9.125c0.742-2.723,2.759-4.859,3.916-7.411c2.801-5.37,8.087-8.627,12.757-12.187
		C1684.962,623.655,1705.509,575.237,1743.688,579.409z"/>
	<path fill="#132C17" stroke="#132C17" stroke-width="0.75" d="M645.613,583.23c8.051,11.992,13,25.86,13.991,42.121
		c1.488,47.952-6.38,76.384-60.74,83.405c-8.281,0.485-37.122,0.598-56.444-7.814c-7.802-3.335-14.78-8.479-20.381-14.839
		c1.881-1.572,2.32-4.094,3.382-6.183c3.596-7.363,8.265-14.139,13.101-20.737c5.631,3.305,13.19,2.801,18.275-1.311
		c7.66-5.939,9.565-17.373,5.453-25.923c4.207-3.981,8.698-7.636,13.131-11.356c11.9,18.875,36.977,20.475,50.677,3.293
		c8.034-9.814,10.401-23.603,7.114-35.743C637.3,586.482,641.804,585.592,645.613,583.23z"/>
	<path fill="#958C88" stroke="#958C88" stroke-width="0.75" d="M764.773,586.399c4.414-0.457,8.68,0.997,12.875,2.1
		c4.533-0.736,9.57-0.902,13.504,1.893c5.711,2.84,1.55,12.356-3.364,16.056c-8.708,7.018-24.71,5.053-35.114,0.498
		c-9.758-4.109-6.838-12.365-2.812-15.273C754.247,588.624,759.438,586.796,764.773,586.399z"/>
	<path fill="#958C88" stroke="#958C88" stroke-width="0.75" d="M1462.72,592.884c2.979,2.789,6.456,5.613,7.482,9.76
		c0.807,2.747-0.018,5.803-1.816,7.98c-4.566,5.838-17.642,5.797-24.404,3.382c-9.543-3.084-21.263-13.352-17.284-20.737
		C1433.398,582.873,1452.635,585.043,1462.72,592.884z"/>
	<path fill="#A59894" stroke="#A59894" stroke-width="0.75" d="M1578.854,588.819c12.063-3.216,25.686-1.632,36.093,5.5
		c7.31,4.824,11.807,14.928,8.182,23.312c-4.715,10.305-14.879,14.808-25.941,16.75c-3.809-0.38-7.63-0.16-11.44-0.166
		c-3.707-7.689-18.662-29.509-23.14-36.116C1567.272,593.886,1572.713,590.392,1578.854,588.819z"/>
	<path fill="#958C88" stroke="#958C88" stroke-width="0.75" d="M1220.247,593.234c1.851,0.949,3.578,2.243,5.666,2.688
		c6.111,1.282,12.217,3.317,17.337,6.984c1.732,1.323,4.023,1.169,6.082,1.495c22.566,3.008,33.287,19.057,31.203,30.231
		c-2.736,14.364-29.749,36.209-69.391,20.523c-10.941-4.711-21.164-12.264-26.819-22.962c-2.545-4.308-6.509-7.684-8.431-12.383
		c-4.314-8.799-1.828-20.856,6.592-26.297C1190.015,587.891,1205.702,585.898,1220.247,593.234z"/>
	<path fill="#958C88" stroke="#958C88" stroke-width="0.75" d="M1072.328,603.54c5.691,7.205,4.556,19.343-8.651,23.65
		c-14.773,4.638-33.964-2.391-34.663-14.311C1027.549,594.867,1058.2,586.654,1072.328,603.54z"/>
	<path fill="#958C88" stroke="#958C88" stroke-width="0.75" d="M1562.845,598.449c4.497,6.101,19.86,29.455,22.903,35.766
		C1563.855,632.245,1549.371,613.689,1562.845,598.449z"/>
	<path fill="#958C88" stroke="#958C88" stroke-width="0.75" d="M655.195,602.425c23.211-3.521,47.103,4.795,57.536,20.755
		c9.322,13.706,9.711,39.079-7.322,56.337c-14.951,16.147-42.008,22.673-62.644,12.003c16.534-16.006,17.632-40.624,16.839-66.169
		C659.129,617.561,657.634,609.835,655.195,602.425z"/>
	<path fill="#958C88" stroke="#958C88" stroke-width="0.75" d="M907.173,610.862c17.191,5.161,23.826,19.456,22.025,30.147
		c-2.533,15.41-21.527,28.237-36.555,32.942c-11.551,3.977-28.896,4.27-35.482,2.967c-12.694-1.933-26.361-11.169-24.902-23.099
		c0.297-3.536,2.053-6.693,2.901-10.093c1.744-6.527,6.361-11.641,10.609-16.679C858.337,614.203,888.106,604.995,907.173,610.862z"
		/>
	<path fill="#F8F9F9" stroke="#F8F9F9" stroke-width="0.75" d="M551.053,622.248c14.865,4.099,17.98,26.136,5.743,35.624
		c-9.704,7.847-24.772,2.062-27.341-12.152C526.57,631.282,538.635,618.502,551.053,622.248z"/>
	<path fill="#958C88" stroke="#958C88" stroke-width="0.75" d="M1439.159,662.15c1.08,3.815,0.053,7.767-0.914,11.493
		c-4.509,12.428-21.3,18.627-34.455,19.622c-0.196,0.089-0.588,0.273-0.777,0.362c1.145,1.566,2.961,2.528,3.999,4.219
		c1.127,1.59,1.78,3.441,2.551,5.233c6.605-6.011,10.868-6.644,20.725-5.916c5.512,1.175,10.923-3.008,16.37-1.021
		c1.976,0.498,2.806,2.492,3.613,4.165c4.023,1.412,8.479,2.462,11.612,5.565c1.875,1.994,2.919,4.978,1.964,7.654
		c-3.556,9.486-17.733,7.164-34.562,4.699c-5.732-0.326-12.08,0.961-17.201-2.302c-2.1-1.074-3.329-3.139-4.486-5.079
		c-9.183,8.363-15.792,9.46-30.13,8.882c-7.108-0.326-14.293-3.59-18.381-9.547c-5.06-8.537,2.066-17.682,12.068-20.518
		c2.433-0.694,4.972-0.848,7.494-1.003c-4.462-2.622-9.108-5.31-12.193-9.588c-2.415-3.916-5.358-7.969-5.132-12.798
		c0.225-2.925,0.552-5.91,1.543-8.675C1380.384,625.165,1436.035,636.429,1439.159,662.15z"/>
	<path fill="#B6ACA9" stroke="#B6ACA9" stroke-width="0.75" d="M358.723,664.499c10.762,1.396,16.668,0.597,30.812,8.336
		c22.829,13.783,35.063,47.077,17.788,86.586c-4.112,8.722-8.799,17.272-15.047,24.671c-0.427,0.528-0.991,0.783-1.697,0.759
		c47.691-69.917-23.394-139.984-105.394-66.276c-5.343,4.428-50.011,52.223-57.405,100.321
		c-5.757,40.922,16.126,62.074,40.258,64.644c-0.605,0.777-1.477,1.169-2.468,1.092c-27.166-1.388-37.61-14.852-42.863-20.061
		c-22.405-26.765-23.711-83.204,29.34-142.976c2.439-2.136,4.136-4.942,6.521-7.126c3.43-3.293,6.645-6.811,10.152-10.016
		c2.64-1.881,4.646-4.497,7.334-6.319c9.944-7.328,20.292-14.199,31.429-19.598C327.72,668.087,342.521,665.467,358.723,664.499z"/>
	<path fill="#958C88" stroke="#958C88" stroke-width="0.75" d="M1485.403,677.007c7.644,1.207,8.651,8.412,4.664,13.469
		c-7.494,8.489-23.246,3.767-22.624-4.622c-0.089-1.816,0.546-3.613,1.822-4.913
		C1475.836,673.023,1481.874,676.558,1485.403,677.007z"/>
	<path fill="#958C88" stroke="#958C88" stroke-width="0.75" d="M764.132,679.149c1.922,1.43,1.958,4.183,3.827,5.666
		c1.181,1.121,2.89,2.522,2.29,4.373c-1.737,7.143-18.428,8.925-26.012-0.825c-2.094-2.581-1.371-6.622,0.967-8.799
		C750.414,675.145,759.504,675.242,764.132,679.149z"/>
	<path fill="#958C88" stroke="#958C88" stroke-width="0.75" d="M1612.46,679.297c3.173,6.729,22.034,40.041,24.819,47.491
		c-25.07,8.878-48.447,7.109-59.144,0.487c-3.771-2.349-14.562-0.425-22.582-8.283c-5.288-4.773-8.824-16.659,3.578-25.911
		C1572.991,681.789,1594.509,679.095,1612.46,679.297z"/>
	<path fill="#A59894" stroke="#A59894" stroke-width="0.75" d="M1612.46,679.297c19.65,0.735,39.639,3.681,52.599,18.595
		c6.465,7.691-0.242,18.773-9.143,21.942c-5.788,2.138-13.706,5.288-18.637,6.954
		C1634.553,719.495,1615.529,685.805,1612.46,679.297z"/>
	<path fill="#958C88" stroke="#958C88" stroke-width="0.75" d="M1184.398,684.305c13.644,5.93,15.225,15.104,16.928,21.046
		c0.789,2.896,1.359,5.981,0.51,8.942c-1.906,9.743-12.733,15.242-20.518,16.91c-18.191,2.564-22.897-1.205-37.677-9.665
		c-11.174-6.376-14.06-23.361-2.528-31.726C1150.145,680.129,1171.744,678.481,1184.398,684.305z"/>
	<path fill="#B6ACA9" stroke="#B6ACA9" stroke-width="0.75" d="M84.364,686.417c9.207,25.539,8.028,26.999,18.874,37.861
		c-10.815,62.64,9.926,121.631,59.921,161.868c30.551,24.861,60.487,33.753,64.579,36.567
		c-54.397,5.613-89.351-1.417-121.444-13.504c-9.905-3.83-27.701-11.307-29.916-21.734c-12.02-50.346-14.292-99.152-9.143-139.381
		C70.047,726.907,74.835,705.677,84.364,686.417z"/>
	<path fill="#787171" stroke="#787171" stroke-width="0.75" d="M390.579,784.852c-3.044,3.863-5.708,8.117-9.381,11.422
		c2.049-4.821,15.283-27.27,13.433-53.827c-2.839-41.46-42.292-62.891-100.048-16.305c-26.213,22.15-76.31,86.727-54.836,128.445
		c8.99,18.148,28.592,26.238,48.992,27.27c-6.633,2.106-13.801,2.356-20.702,1.685c-33.538-3.572-57.167-41.796-28.338-101.342
		c13.999-29.189,38.872-58.142,45.485-63.623C367.156,644.894,438.337,714.836,390.579,784.852z"/>
	<path fill="#958C88" stroke="#958C88" stroke-width="0.75" d="M1363.129,719.152c3.507,1.94,6.307,4.954,9.986,6.633
		c4.397,2.029,8.657,4.64,11.891,8.307c7.162,8.133,4.151,22.059-12.199,27.786c-10.411,3.925-41.673,0.254-52.7-9.161
		c-11.569-10.41-9.972-25.899,6.71-33.88C1335.398,714.313,1351.28,712.485,1363.129,719.152z"/>
	<path fill="#787171" stroke="#787171" stroke-width="0.75" d="M358.041,751.221c21.597,17.437,14.946,57.354-15.913,75.312
		c-19.122,11.232-44.416,10.142-56.901-10.781c-12.804,16.884,1.838,57.084,47.597,34.146c3.637-1.667,6.901-4.029,10.514-5.726
		c-2.262,3.174-18.158,18.206-35.778,21.948c-47.157,9.914-65.321-66.765-5.726-110.746
		C321.74,739.409,344.931,740.263,358.041,751.221z"/>
	<path fill="#958C88" stroke="#958C88" stroke-width="0.75" d="M1017.51,749.127c2.789,1.638,5.66,3.424,7.429,6.23
		c4.652,6.396,5.21,15.812,0.593,22.381c-1.555,2.617-4.379,3.958-6.699,5.761c-5.571,4.343-13.587,5.073-19.948,2.106
		c-2.575-1.163-4.717-3.252-7.559-3.75c-4.557-0.866-8.568-3.424-12.151-6.254c-3.133-2.462-4.77-6.355-5.097-10.247
		C971.964,750.953,997.555,738.234,1017.51,749.127z"/>
	<path fill="#958C88" stroke="#958C88" stroke-width="0.75" d="M1498.124,757.404c10.073,5.101,13.667,6.065,14.501,9.743
		c-0.273,1.685-2.308,1.863-3.643,2.16c-5.773,0.653-11.261-1.744-16.78-3.014c-2.403-0.534-5.002-1.976-5.488-4.586
		C1486.221,757.456,1492.986,754.617,1498.124,757.404z"/>
	<path fill="#A59894" stroke="#A59894" stroke-width="0.75" d="M1689.558,775.281c18.632-0.622,44.584,9.343,51.371,12.881
		c4.883,2.628,7.381,9.197,4.622,14.204c-6.6,10.101-34.543,24.999-58.96,24.718c-1.752-5.21-19.616-41.553-22.636-47.58
		C1666.776,778.825,1676.898,774.817,1689.558,775.281z"/>
	<path fill="#958C88" stroke="#958C88" stroke-width="0.75" d="M1663.956,779.506c2.997,5.981,20.881,42.361,22.636,47.58
		C1627.541,827.865,1635.107,782.88,1663.956,779.506z"/>
	<path fill="#8F817C" stroke="#8F817C" stroke-width="0.75" d="M889.136,796.73c-2.105,22.037-34.277,188.332,6.26,317.168
		c1.821,6.414,4.426,12.567,6.515,18.892c-11.95,19.936-24.623,39.439-37.849,58.55c-83.683-17.702-153.234-63.687-212.966-124.452
		c-2.387-2.327-21.237-22.39-30.171-33.333c17.562-6.001,143.782-33.918,223.973-149.289
		C872.002,845.387,883.33,811.932,889.136,796.73z"/>
	<path fill="#958C88" stroke="#958C88" stroke-width="0.75" d="M1253.355,838.442c12.075,18.938-1.225,34.813-13.582,37.279
		c-8.906,2.39-20.213-5.87-24.576-11.594c-5.765-7.368-8.985-6.395-14.382-15.884c-2.486-4.586-3.079-10.656-0.101-15.16
		C1210.555,817.963,1239.813,819.505,1253.355,838.442z"/>
	<path fill="#A59894" stroke="#A59894" stroke-width="0.75" d="M1726.452,860.781c3.513,3.732,5.767,10.116,2.623,14.709
		c-3.584,3.922-9.31,5.192-14.442,4.842c-1.205-0.267-2.397-0.516-3.584-0.67c-1.75-5.423-4.598-10.395-6.859-15.605
		c-1.548-2.545-1.786-6.058-4.551-7.672C1708.281,853.59,1719.367,854.477,1726.452,860.781z"/>
	<path fill="#958C88" stroke="#958C88" stroke-width="0.75" d="M1693.302,860.484c1.887-1.679,4.141-2.872,6.337-4.1
		c2.765,1.614,3.002,5.126,4.551,7.672c2.261,5.21,5.109,10.182,6.859,15.605c-5.31-0.457-10.443-2.1-15.32-4.189
		C1688.724,872.614,1688.574,865.013,1693.302,860.484z"/>
	<path fill="#8F817C" stroke="#8F817C" stroke-width="0.75" d="M324.191,892.198c1.121,5.536-0.166,11.244-1.928,16.513
		c-13.284,36.358-78.227,63.879-166.526,54.919c-3.281-6.408-5.868-13.243-7.245-20.31c1-0.002,87.666,8.166,144.513-18.192
		C316.392,913.97,321.748,902.149,324.191,892.198z"/>
	<path fill="#B6ACA9" stroke="#B6ACA9" stroke-width="0.75" d="M1095.148,917.154c14.687,9.429,27.092,23.697,30.895,40.922
		c23.5,86.987,18.996,183.759-2.528,271.273c-20.572,85.317-51.051,143.749-65.463,173.064
		c-22.958,43.85-51.712,86.904-55.975,90.496c-8.722-14.744-18.18-29.062-28.35-42.851c1.952-4.13,4.687-7.82,6.811-11.855
		c13.854-24.752,26.38-47.05,23.911-67.189c-2.508-20.004-18.894-29.924-43.937-19.871c-3.352,1.264-6.467,3.044-9.695,4.569
		c1.79-4.249,13.716-27.024,18.079-42.471c5.04-19.074-1.855-32.91-17.622-40.43c-34.453-16.155-66.3,12.334-71.758,15.355
		c2.285-5.621,21.868-38.937,2.077-48.256c-5.02-2.557-10.739-2.913-16.269-2.896c35.725-48.938,68.791-100.203,93.706-155.567
		c25.617-57.345,34.236-104.977,34.449-131.169C994.846,902.506,1048.055,888.089,1095.148,917.154z"/>
	<path fill="#8F817C" stroke="#8F817C" stroke-width="0.75" d="M1603.513,939.214c-56.274,184.716-121.337,279.7-286.57,280.553
		c-6.681-0.101-13.35-0.493-20.031-0.564c19.361-75.514,28.439-153.472,29.542-231.348
		C1417.958,998.533,1533.61,999.177,1603.513,939.214z"/>
	<path fill="#8F817C" stroke="#8F817C" stroke-width="0.75" d="M1612.259,953.911c-0.558,8.619,20.297,101.524,92.531,143.932
		c19.639,11.629,42.643,18.287,65.552,16.53c-80.12,74.863-145.742,94.232-246.964,58.556
		C1549.63,1138.129,1586.91,1089.992,1612.259,953.911z"/>
	<path fill="#8F817C" stroke="#8F817C" stroke-width="0.75" d="M639.626,1109.175c0.184-0.018,0.54-0.053,0.718-0.077
		c45.901,53.229,109.881,105.23,179.431,118.418c5.293,1.062,10.662,1.655,16.002,2.486c-2.451,3.957-5.637,7.405-8.408,11.149
		c-39.561,50.003-64.013,70.826-70.364,77.976c-18.202,23.607-4.645,68.131,6.717,95.568c0.73,1.127-0.35,1.958-1.199,2.557
		c-30.868,22.44-56.674,34.101-84.028,42.204c-3.697-11.396-8.291-29.716-30.717-66.222c14.337-14.885,28.761-42.193,35.879-55.507
		c8.892-17.551,18.241-38.219,10.811-56.557c2.244-1.961,11.528-12.586,13.285-14.282c0.979-1.026,2.112-1.97,2.759-3.251
		c0-1.826-9.341-51.054-42.281-91.647c-15.424-19.806-35.907-34.702-43.937-40.667c2.106-3.24,4.474-6.295,6.675-9.464
		C633.995,1117.725,636.665,1113.346,639.626,1109.175z"/>
	<path fill="#8F817C" stroke="#8F817C" stroke-width="0.75" d="M1738.912,1174.947c17.765-17.242,31.506-38.597,40.009-61.838
		c5.952,1.294,11.304-0.588,27.934,14.97c33.654,36.057,54.914,94.355,59.601,102.701c-0.16,1.608-0.273,3.269-1.08,4.723
		c-3.845-3.495-8.176-6.883-13.457-7.69c-9.592-1.409-26.745,1.026-33.577,11.048c-1.685,2.628-1.946,5.827-2.54,8.823
		c-3.435-2.065-6.444-4.907-10.365-6.046c-6.159-2.035-13.243-1.347-18.72,2.207
		C1770.652,1225.289,1750.184,1192.906,1738.912,1174.947z"/>
	<path fill="#A9A2A0" stroke="#A9A2A0" stroke-width="0.75" d="M624.294,1131.325c7.38,5.483,28.261,20.537,43.937,40.667
		c31.148,38.384,42.281,87.47,42.281,91.647c-0.647,1.282-1.78,2.225-2.759,3.251c-1.744,1.683-11.112,12.383-13.285,14.282
		c-6.998-15.667-21.932-17.711-38.122-12.253c-4.521,1.359-8.586,3.815-12.923,5.613c0.006-0.015,10.142-20.5,16.222-36.704
		c2.64-7.743,4.456-16.157,2.611-24.285c-4.345-21.435-38.464-39.294-78.19-14.543c-4.153,2.373-7.737,5.601-11.896,7.945
		c1.605-4.676,7.21-13.4,9.6-24.487c4.824-5.803,10.205-11.161,15.065-16.958C614.051,1145.575,621.027,1135.208,624.294,1131.325z"
		/>
	<path fill="#8C725E" stroke="#8C725E" stroke-width="0.75" d="M564.907,1199.392c6.07-5.192,10.817-11.718,16.863-16.934
		c-2.375,11.019-8.089,20.087-9.6,24.487c4.159-2.344,7.743-5.571,11.896-7.945c39.695-24.732,73.842-6.908,78.19,14.543
		c1.845,8.129,0.03,16.542-2.611,24.285c-6.079,16.204-16.216,36.689-16.222,36.704c3.307-1.371,38.392-21.686,51.045,6.64
		c7.428,18.331-1.942,39.052-10.811,56.557c-5.749,10.754-20.983,40.041-35.879,55.507c-4.379-7.025-9.084-13.831-13.653-20.731
		c6.912-7.619,13.297-15.694,19.384-23.971c10.246-13.75,24.504-33.603,26.314-50.944c4.575-22.356-12.651-32.876-41.142-3.625
		c-21.863,22.735-19.065,20.981-34.431,40.353c-3.934-4.557-8.01-8.971-12.068-13.409c2.607-2.422,25.815-31.868,43.124-67.676
		c5.854-12.374,13.768-28.619,9.232-41.498c-3.189-9.07-17.009-21.098-40.21-10.9c-20.936,9.26-53.787,40.33-59.992,49.793
		c-4.462,5.904-8.704,12.003-13.587,17.575c-4.165-2.237-7.968-5.115-12.246-7.138c2.249-1.78,3.649-4.337,5.518-6.467
		c15.887-19.872,17.057-15.715,36.205-48.019c0.771-1.341,1.715-2.682,1.691-4.284
		C562.587,1201.024,563.827,1200.264,564.907,1199.392z"/>
	<path fill="#DED39E" stroke="#DED39E" stroke-width="0.75" d="M628.216,1197.766c7.025,2.059,13.813,6.829,16.323,13.967
		c2.551,7.245,1.121,15.154-1.133,22.28c-11.916,34.898-45.76,81.819-51.223,86.894c-18.441-19.77-38.852-37.802-61.434-52.706
		c16.119-18.391,9.318-18.346,46.025-49.199C590.738,1207.549,610.887,1192.971,628.216,1197.766z"/>
	<path fill="#DED39E" stroke="#DED39E" stroke-width="0.75" d="M502.292,1252.982c20.796-15.771,40.916-32.479,59.624-50.689
		c0.055,3.731-16.851,27.818-19.556,31.518c-6.313,6.746-12.567,13.564-18.34,20.785c-1.869,2.13-3.269,4.687-5.518,6.467
		C513.34,1257.907,507.769,1255.51,502.292,1252.982z"/>
	<path fill="#8F817C" stroke="#8F817C" stroke-width="0.75" d="M1489.693,1206.304c5.415-3.658-5.376-1.656,41.682,11.813
		c-3.389,5.089-5.977,7.444-6.96,18.506c-6.591-4.274-10.026-11.375-30.664-6.711c-10.948,2.636-18.679,7.297-19.248,18.583
		c-4.104-1.434-7.735-7.556-19.728-6.806c-2.439-2.213-5.079-4.213-7.179-6.752
		C1462.56,1226.87,1476.646,1217.198,1489.693,1206.304z"/>
	<path fill="#8C725E" stroke="#8C725E" stroke-width="0.75" d="M1905.218,1211.84c14.783,5.225,34.543,24.997,53.608,40.098
		c-2.468,4.159-5.34,8.075-8.514,11.718c-1.514-2.261-1.034-1.382-30.539-26.57c-5.174-4.551-10.087-9.481-15.973-13.119
		c-12.744-7.845-21.955-1.115-22.897,9.066c-1.893,20.678,11.834,32.572,16.495,38.252c10.284,12.384,9.645,13.004,11.736,13.439
		c-4.954,1.21-9.944,2.29-14.958,3.216c0.184-0.136,0.552-0.409,0.736-0.552c-36.59-40.03-38.021-50.303-48.749-51.431
		c-10.563-1.009-20.649,2.953-19.36,13.421c1.428,13.042,20.9,34.532,22.838,37.73c-8.538-1.833-16.714-5.198-24.279-9.523
		c-0.819-2.373-2.747-4.047-4.236-5.969c-6.969-8.474-15.858-23.436-24.588-21.052c0.166,1.454,0.273,2.925,0.356,4.414
		c-3.726-3.4-6.93-7.304-10.176-11.137c5.476-3.554,12.561-4.242,18.72-2.207c3.922,1.139,6.93,3.981,10.365,6.046
		c0.593-2.996,0.854-6.194,2.54-8.823c6.773-9.935,23.853-12.477,33.577-11.048c5.281,0.807,9.612,4.195,13.457,7.69
		c0.807-1.454,0.92-3.115,1.08-4.723C1869.843,1211.87,1888.697,1205.425,1905.218,1211.84z"/>
	<path fill="#8C725E" stroke="#8C725E" stroke-width="0.75" d="M1531.375,1218.118c2.801,0.51,5.506,1.466,8.313,2.047
		c2.557,0.647,5.233,0.943,7.696,1.994c-13.633,6.506-8.418,30.063,1.644,42.311c-4.871,1.074-9.814,2.047-14.798,2.302
		c-3.145-4.557-6.942-8.615-10.377-12.941c-9.004-10.288-11.272-17.188-22.381-16.969c-4.379,0.053-9.096,0.766-12.561,3.667
		c-2.724,2.35-3.946,6.07-3.566,9.612c0.249,4.426,2.344,8.455,4.343,12.324c-16.472-5.289-32.836-18.238-34.532-20.796
		c10.573-0.992,15.966,5.647,19.349,6.829c0.569-11.288,8.304-15.948,19.248-18.583c20.637-4.664,24.072,2.436,30.664,6.711
		C1525.397,1225.57,1527.982,1223.213,1531.375,1218.118z"/>
	<path fill="#DED39E" stroke="#DED39E" stroke-width="0.75" d="M1903.8,1223.968c5.886,3.637,10.799,8.568,15.973,13.119
		c29.494,25.178,29.026,24.309,30.539,26.57c-12.146,12.979-20.924,15.14-41.177,21.069c-2.084-0.434-1.403-0.996-11.736-13.439
		c-4.702-5.73-18.392-17.532-16.495-38.252C1881.816,1223.172,1890.776,1215.951,1903.8,1223.968z"/>
	<path fill="#B1A17A" stroke="#B1A17A" stroke-width="0.75" d="M1547.383,1222.158c2.534,0.065,4.984,0.849,7.488,1.24
		c7.45,1.502,6.017-0.844,19.895,11.564c5.15,4.865,10.882,9.078,16.002,13.979c-4.302,3.429-9.22,6.105-14.442,7.844
		c-8.93,3.121-18.014,5.88-27.299,7.684C1539.004,1252.269,1533.714,1228.682,1547.383,1222.158z"/>
	<path fill="#8C725E" stroke="#8C725E" stroke-width="0.75" d="M1561.884,1224.71c6.752,0.801,13.487,1.762,20.274,2.284
		c1.988,0.196,4.076-0.202,6.016,0.493c-0.302,0.024-0.914,0.065-1.222,0.083c4.581,3.952,9.197,7.891,14.05,11.499
		c-3.168,3.513-6.384,7.096-10.235,9.873c-5.12-4.901-10.852-9.114-16.002-13.979
		C1570.672,1231.302,1566.613,1227.54,1561.884,1224.71z"/>
	<path fill="#B1A17A" stroke="#B1A17A" stroke-width="0.75" d="M1586.953,1227.57c0.079-0.005,15.8,0.272,21.39,0.178
		c-1.756,4.165-4.705,7.684-7.34,11.321C1596.149,1235.461,1591.533,1231.521,1586.953,1227.57z"/>
	<path fill="#B1A17A" stroke="#B1A17A" stroke-width="0.75" d="M1846.163,1235.959c5.364,0.564,9.529,4.563,12.638,8.681
		c7.909,10.021,16.198,19.752,24.303,29.613c0.671,5.037,3.246,9.565,4.195,14.549c-12.508,1.59-25.383,1.347-37.659-1.691
		c-2.005-3.308-21.405-24.652-22.838-37.73C1825.515,1238.913,1835.594,1234.95,1846.163,1235.959z"/>
	<path fill="#8C725E" stroke="#8C725E" stroke-width="0.75" d="M858.33,1246.568c2.296-3.21,4.575-6.438,6.995-9.553
		c5.53-0.018,11.25,0.338,16.269,2.896c19.678,9.266,0.419,42.115-2.077,48.256c5.376-2.976,37.281-31.521,71.758-15.355
		c15.742,7.508,22.671,21.324,17.622,40.43c-4.357,15.427-16.314,38.282-18.079,42.471c3.228-1.525,6.343-3.305,9.695-4.569
		c25.062-10.062,41.431-0.112,43.937,19.871c2.451,20.001-9.803,41.982-23.911,67.189c-2.124,4.035-4.859,7.725-6.811,11.855
		c-4.587-6.42-9.499-12.602-14.377-18.803c2.937-2.832,17.482-22.212,23.929-37.784c8.925-21.912,6.059-43.755-16.809-34.01
		c-9.784,4.385-17.23,12.377-24.529,19.978c-4.64,5.15-9.582,10.051-13.896,15.48c-4.409-4.515-8.9-8.936-13.303-13.457
		c3.542-3.83,15.428-21.882,26.997-44.928c7.376-15.431,16.665-34.445,8.657-47.39c-5.109-8.016-15.166-12.169-24.481-11.184
		c-9.387,0.955-18.055,5.251-25.864,10.33c-15.149,9.735-43.045,34.806-47.728,42.975c-3.833-2.409-7.719-4.723-11.701-6.865
		c9.715-7.011,55.028-71.172,34.022-78.777C869.318,1243.459,863.634,1245.405,858.33,1246.568z"/>
	<path fill="#B1A17A" stroke="#B1A17A" stroke-width="0.75" d="M1488.91,1240.528c3.465-2.901,8.182-3.614,12.561-3.667
		c11.064-0.218,13.25,6.537,22.381,16.969c3.435,4.325,7.233,8.384,10.377,12.941c-14.893,1.78-30.349,0.742-44.542-4.308
		c-1.999-3.869-4.094-7.897-4.343-12.324C1484.964,1246.598,1486.186,1242.878,1488.91,1240.528z"/>
	<path fill="#E1D5A7" stroke="#E1D5A7" stroke-width="0.75" d="M858.33,1246.568c5.304-1.163,10.989-3.109,16.317-0.943
		c20.584,7.453-23.573,71.236-34.022,78.777c-10.223-5.88-21.129-10.478-32.295-14.216
		C825.477,1289.36,842.114,1268.124,858.33,1246.568z"/>
	<path fill="#B1A17A" stroke="#B1A17A" stroke-width="0.75" d="M1796.537,1250.567c8.733-2.386,17.579,12.528,24.588,21.052
		c1.489,1.922,3.418,3.596,4.236,5.969c-10.603-5.963-20.15-13.765-28.468-22.606
		C1796.81,1253.492,1796.703,1252.021,1796.537,1250.567z"/>
	<path fill="#8F817C" stroke="#8F817C" stroke-width="0.75" d="M568.556,1324.479c24.557,24.203,49.192,54.427,63.819,85.678
		c7.016,15.323,16.902,38.992,15.13,55.851c-0.99,6.867-2.723,9.981-13.475,9.784c-67.217-1.866-178.375-135.351-172.062-196.038
		c0.35-2.391,0.843-5.031,2.735-6.711C471.936,1265.76,511.246,1270.06,568.556,1324.479z"/>
	<path fill="#DED39E" stroke="#DED39E" stroke-width="0.75" d="M1883.105,1274.253c3.898,4.409,7.832,8.787,11.807,13.137
		c-0.184,0.142-0.552,0.415-0.736,0.552c-2.29,0.397-4.592,0.564-6.877,0.86C1886.35,1283.818,1883.775,1279.291,1883.105,1274.253z
		"/>
	<path fill="#DED39E" stroke="#DED39E" stroke-width="0.75" d="M679.825,1297.589c-3.53,3.221-55.178,59.651-56.1,60.663
		c-6.366-8.081-12.751-16.151-19.473-23.935c15.497-19.536,12.43-17.475,34.431-40.353
		C667.433,1264.447,684.327,1275.585,679.825,1297.589z"/>
	<path fill="#E1D5A7" stroke="#E1D5A7" stroke-width="0.75" d="M925.917,1277.962c12.875-1.361,32.455,7.298,26.368,32.331
		c-5.756,22.514-31.338,64.465-37.54,71.171c-8.26-8.448-34.363-32.848-62.419-50.196c3.574-6.235,18.498-19.744,23.739-24.238
		C889.907,1295.049,907.858,1279.8,925.917,1277.962z"/>
	<path fill="#B1A17A" stroke="#B1A17A" stroke-width="0.75" d="M679.825,1297.589c-1.802,17.261-15.924,37-26.314,50.944
		c-6.088,8.277-12.472,16.352-19.384,23.971c-3.489-4.735-7.001-9.458-10.401-14.252
		C624.644,1357.243,676.314,1300.793,679.825,1297.589z"/>
	<path fill="#8F817C" stroke="#8F817C" stroke-width="0.75" d="M909.113,1408.745c1.356,1.636,80.185,81.889,93.931,155.282
		c1.658,8.861,3.457,25.365-4.954,28.807c-13.778,5.13-37.3-5.151-50.41-12.015c-91.066-48.473-178.974-176.773-176.796-235.145
		c0.071-3.774,0.706-7.755,3.038-10.822C784.693,1323.58,838.547,1336.579,909.113,1408.745z"/>
	<path fill="#E1D5A7" stroke="#E1D5A7" stroke-width="0.75" d="M966.471,1359.462c22.855-9.739,25.727,12.116,16.809,34.01
		c-6.37,15.385-20.943,34.904-23.929,37.784c-9.873-12.585-20.411-24.635-31.304-36.336c4.313-5.429,9.256-10.33,13.896-15.48
		C949.241,1371.839,956.687,1363.847,966.471,1359.462z"/>
</g>
</svg>
