<?xml version="1.0" encoding="utf-8"?>
<!-- Generator: Adobe Illustrator 23.0.5, SVG Export Plug-In . SVG Version: 6.00 Build 0)  -->
<svg version="1.1" id="Layer_1" xmlns="http://www.w3.org/2000/svg" xmlns:xlink="http://www.w3.org/1999/xlink" x="0px" y="0px"
	 viewBox="0 0 536.2 498.6" style="enable-background:new 0 0 536.2 498.6;" xml:space="preserve">
<style type="text/css">
	.st0{fill:#FFC35A;}
	.st1{fill:#ABBF55;}
	.st2{fill:#85913F;}
	.st3{fill:#8B9154;}
	.st4{fill:#7C5447;}
	.st5{fill:#A36D57;}
	.st6{clip-path:url(#SVGID_2_);}
	.st7{clip-path:url(#SVGID_4_);}
	.st8{fill:#F4E1C3;}
</style>
<g>
	<rect x="395.6" y="246.8" class="st0" width="30.3" height="195.2"/>
	<g>
		<path class="st0" d="M423.3,277.5L279.1,274l0.7,185.7L249.2,444V55.2l-3.8-0.6c-1.6-1.4-3-3.2-4.1-5.2h-17.6
			c-4.8,0-9.3-1.9-12.5-4.9c3.4-7.1,38.4,3.5,38.4,3.5l3.6-35.9h15.3c8.5,0,15.4,6.9,15.4,15.4v151.3l139.3-14.4V277.5z"/>
	</g>
	<path class="st1" d="M177.8,151c0.2-3.4,0.3-6.8,0.3-10.2c0-63.2-34.9-114.5-77.9-114.5c-43,0-77.9,51.3-77.9,114.5
		c0,3.4,0.1,6.8,0.3,10.2C8.7,171.7,0,200.2,0,231.7C0,295,34.9,346.2,77.9,346.2c7.8,0,15.3-1.7,22.3-4.8
		c7.1,3.1,14.6,4.8,22.3,4.8c43,0,77.9-51.3,77.9-114.5C200.4,200.2,191.8,171.7,177.8,151z"/>
	<path class="st1" d="M513.6,151c0.2-3.4,0.3-6.8,0.3-10.2c0-63.2-34.9-114.5-77.9-114.5c-43,0-77.9,51.3-77.9,114.5
		c0,3.4,0.1,6.8,0.3,10.2c-14,20.7-22.7,49.2-22.7,80.7c0,63.2,34.9,114.5,77.9,114.5c7.8,0,15.3-1.7,22.3-4.8
		c7.1,3.1,14.6,4.8,22.3,4.8c43,0,77.9-51.3,77.9-114.5C536.2,200.2,527.6,171.7,513.6,151z"/>
	<g>
		<path class="st2" d="M201,427.7c-0.4-16.9-13.6-33.5-32-39.7c-14.9-5.1-33.3-3.2-50.9,11l-0.1,0.1c-0.3,0.2-0.5,0.3-0.7,0.4
			c-12.6,6.3-23.4,18.3-21,34c0,0-0.7,0-1.7,0.2c-40.4,5-36.2,65,4.5,65h88.5c16,0,31.2-9,37.3-23.8
			C230.7,460.9,221.5,436.8,201,427.7"/>
	</g>
	<g>
		<path class="st1" d="M347.7,413.5c-0.5-20.3-16.3-40.2-38.3-47.7c-17.9-6.1-39.9-3.9-61,13.2l-0.1,0.1c-0.3,0.2-0.6,0.3-0.8,0.5
			c-15.1,7.5-28.1,22-25.2,40.8c0,0-0.8,0-2,0.2c-48.4,6-43.5,78,5.4,78h106.2c19.2,0,37.4-10.8,44.8-28.6
			C383.3,453.4,372.3,424.4,347.7,413.5"/>
	</g>
	<g>
		<path class="st2" d="M463.9,427.7c-0.4-16.9-13.6-33.5-32-39.7c-14.9-5.1-33.3-3.2-50.9,11L381,399c-0.3,0.2-0.5,0.3-0.7,0.4
			c-12.6,6.3-23.4,18.3-21,34c0,0-0.7,0-1.7,0.2c-40.4,5-36.2,65,4.5,65h88.5c16,0,31.2-9,37.3-23.8
			C493.6,460.9,484.4,436.8,463.9,427.7"/>
	</g>
	<path class="st3" d="M122.6,176.3c-3.4-2.7-8.3-2.2-11,1.1l-10.5,12.9v-65.9c0-4.3-3.5-7.8-7.8-7.8c-4.3,0-7.8,3.5-7.8,7.8V154
		l-6-8.1c-2.6-3.5-7.5-4.2-10.9-1.6c-3.5,2.6-4.2,7.5-1.6,10.9l18.6,25v132.6c0,4.3,3.5,7.8,7.8,7.8c4.3,0,7.8-3.5,7.8-7.8v-97.8
		l22.6-27.8C126.4,183.9,125.9,179,122.6,176.3z"/>
	<path class="st3" d="M464.5,155.2c2.6-3.5,1.8-8.4-1.6-10.9c-3.5-2.6-8.4-1.8-10.9,1.6l-6,8.1v-29.6c0-4.3-3.5-7.8-7.8-7.8
		c-4.3,0-7.8,3.5-7.8,7.8v65.9l-10.5-12.9c-2.7-3.3-7.7-3.9-11-1.1c-3.4,2.7-3.9,7.6-1.1,11l22.6,27.8v111.8c0,4.3,3.5,7.8,7.8,7.8
		c4.3,0,7.8-3.5,7.8-7.8V212.4c0,0,0,0,0,0v-32.1L464.5,155.2z"/>
	<g>
		<path class="st4" d="M473.6,295.4h-47c-1.9,0-3.4-1.5-3.4-3.4v-5.6c0-1.9,1.5-3.4,3.4-3.4h47c1.9,0,3.4,1.5,3.4,3.4v5.6
			C477,293.8,475.5,295.4,473.6,295.4"/>
	</g>
	<g>
		<path class="st5" d="M470.1,498.6h-39.9c-3.8,0-6.9-3.1-6.9-6.9v-188c0-4.6,3.7-8.3,8.3-8.3h37.2c4.6,0,8.3,3.7,8.3,8.3v188
			C477,495.5,473.9,498.6,470.1,498.6"/>
	</g>
	<g>
		<defs>
			<path id="SVGID_1_" d="M423.3,292.9v197.2c0,4.7,3.8,8.5,8.5,8.5h36.8c4.7,0,8.5-3.8,8.5-8.5V292.9H423.3z"/>
		</defs>
		<clipPath id="SVGID_2_">
			<use xlink:href="#SVGID_1_"  style="overflow:visible;"/>
		</clipPath>
		<g class="st6">
			<path class="st4" d="M440.1,341h-16.8c-4.3,0-7.8-3.5-7.8-7.8c0-4.3,3.5-7.8,7.8-7.8h16.8c4.3,0,7.8,3.5,7.8,7.8
				C447.9,337.5,444.4,341,440.1,341z"/>
		</g>
		<g class="st6">
			<path class="st4" d="M440.1,395.1h-16.8c-4.3,0-7.8-3.5-7.8-7.8s3.5-7.8,7.8-7.8h16.8c4.3,0,7.8,3.5,7.8,7.8
				S444.4,395.1,440.1,395.1z"/>
		</g>
		<g class="st6">
			<path class="st4" d="M440.1,449.3h-16.8c-4.3,0-7.8-3.5-7.8-7.8c0-4.3,3.5-7.8,7.8-7.8h16.8c4.3,0,7.8,3.5,7.8,7.8
				C447.9,445.8,444.4,449.3,440.1,449.3z"/>
		</g>
		<g class="st6">
			<path class="st4" d="M477,371h-16.8c-4.3,0-7.8-3.5-7.8-7.8s3.5-7.8,7.8-7.8H477c4.3,0,7.8,3.5,7.8,7.8S481.4,371,477,371z"/>
		</g>
		<g class="st6">
			<path class="st4" d="M477,425.2h-16.8c-4.3,0-7.8-3.5-7.8-7.8c0-4.3,3.5-7.8,7.8-7.8H477c4.3,0,7.8,3.5,7.8,7.8
				C484.9,421.7,481.4,425.2,477,425.2z"/>
		</g>
		<g class="st6">
			<path class="st4" d="M477,479.3h-16.8c-4.3,0-7.8-3.5-7.8-7.8c0-4.3,3.5-7.8,7.8-7.8H477c4.3,0,7.8,3.5,7.8,7.8
				C484.9,475.8,481.4,479.3,477,479.3z"/>
		</g>
	</g>
	<g>
		<path class="st5" d="M472.1,261c0,12.1-9.8,22-22,22s-22-9.8-22-22c0-12.1,9.8-22,22-22S472.1,248.8,472.1,261"/>
	</g>
	<g>
		<path class="st4" d="M130.4,295.4h-47c-1.9,0-3.4-1.5-3.4-3.4v-5.6c0-1.9,1.5-3.4,3.4-3.4h47c1.9,0,3.4,1.5,3.4,3.4v5.6
			C133.8,293.8,132.3,295.4,130.4,295.4"/>
	</g>
	<g>
		<path class="st5" d="M126.9,498.6H87c-3.8,0-6.9-3.1-6.9-6.9v-188c0-4.6,3.7-8.3,8.2-8.3h37.2c4.6,0,8.3,3.7,8.3,8.3v188
			C133.8,495.5,130.7,498.6,126.9,498.6"/>
	</g>
	<g>
		<defs>
			<path id="SVGID_3_" d="M80.1,292.9v197.2c0,4.7,3.8,8.5,8.5,8.5h36.8c4.7,0,8.5-3.8,8.5-8.5V292.9H80.1z"/>
		</defs>
		<clipPath id="SVGID_4_">
			<use xlink:href="#SVGID_3_"  style="overflow:visible;"/>
		</clipPath>
		<g class="st7">
			<path class="st4" d="M96.9,341H80.1c-4.3,0-7.8-3.5-7.8-7.8c0-4.3,3.5-7.8,7.8-7.8h16.8c4.3,0,7.8,3.5,7.8,7.8
				C104.7,337.5,101.2,341,96.9,341z"/>
		</g>
		<g class="st7">
			<path class="st4" d="M96.9,395.1H80.1c-4.3,0-7.8-3.5-7.8-7.8s3.5-7.8,7.8-7.8h16.8c4.3,0,7.8,3.5,7.8,7.8
				S101.2,395.1,96.9,395.1z"/>
		</g>
		<g class="st7">
			<path class="st4" d="M96.9,449.3H80.1c-4.3,0-7.8-3.5-7.8-7.8c0-4.3,3.5-7.8,7.8-7.8h16.8c4.3,0,7.8,3.5,7.8,7.8
				C104.7,445.8,101.2,449.3,96.9,449.3z"/>
		</g>
		<g class="st7">
			<path class="st4" d="M133.8,371H117c-4.3,0-7.8-3.5-7.8-7.8s3.5-7.8,7.8-7.8h16.8c4.3,0,7.8,3.5,7.8,7.8S138.1,371,133.8,371z"/>
		</g>
		<g class="st7">
			<path class="st4" d="M133.8,425.2H117c-4.3,0-7.8-3.5-7.8-7.8c0-4.3,3.5-7.8,7.8-7.8h16.8c4.3,0,7.8,3.5,7.8,7.8
				C141.7,421.7,138.1,425.2,133.8,425.2z"/>
		</g>
		<g class="st7">
			<path class="st4" d="M133.8,479.3H117c-4.3,0-7.8-3.5-7.8-7.8c0-4.3,3.5-7.8,7.8-7.8h16.8c4.3,0,7.8,3.5,7.8,7.8
				C141.7,475.8,138.1,479.3,133.8,479.3z"/>
		</g>
	</g>
	<g>
		<path class="st5" d="M128.9,261c0,12.1-9.8,22-22,22c-12.1,0-22-9.8-22-22c0-12.1,9.8-22,22-22C119.1,239,128.9,248.8,128.9,261"
			/>
	</g>
	<g>
		<path class="st5" d="M393.6,498.6H162.5c-4.3,0-7.8-3.5-7.8-7.8V289.1c0-4.3,3.5-7.8,7.8-7.8c4.3,0,7.8,3.5,7.8,7.8v193.8h215.6
			l3.8-193.9c0.1-4.3,3.7-7.6,8-7.7c4.3,0.1,7.8,3.6,7.7,8l-3.9,201.6C401.3,495.2,397.9,498.6,393.6,498.6z"/>
	</g>
	<g>
		<path class="st5" d="M220.2,496.5c-4.3,0-7.8-3.5-7.8-7.8V239c0-4.3,3.5-7.8,7.8-7.8s7.8,3.5,7.8,7.8v249.7
			C228.1,493,224.6,496.5,220.2,496.5z"/>
	</g>
	<g>
		<path class="st5" d="M278,496.5c-4.3,0-7.8-3.5-7.8-7.8V225.2c0-4.3,3.5-7.8,7.8-7.8c4.3,0,7.8,3.5,7.8,7.8v263.4
			C285.8,493,282.3,496.5,278,496.5z"/>
	</g>
	<g>
		<path class="st5" d="M335.8,496.5c-4.3,0-7.8-3.5-7.8-7.8V239c0-4.3,3.5-7.8,7.8-7.8c4.3,0,7.8,3.5,7.8,7.8v249.7
			C343.6,493,340.1,496.5,335.8,496.5z"/>
	</g>
	<g>
		<path class="st5" d="M162.5,297c-0.6,0-1.2-0.1-1.8-0.2c-3.5-0.8-6-4-6-7.6v-155c0-4.3,3.5-7.8,7.8-7.8c4.3,0,7.8,3.5,7.8,7.8
			v128.5c25.7-32,65.3-51.2,108.7-51.5c43.9-0.6,84.6,19,110.7,51.6V134.2c0-4.3,3.5-7.8,7.8-7.8s7.8,3.5,7.8,7.8v155
			c0,3.6-2.4,6.7-5.9,7.6c-3.5,0.8-7.1-0.8-8.8-3.9l-0.8-1.5c-21.1-40.1-63.6-65-110.7-64.5c-47.8,0.3-88.8,25-109.7,65.9
			C168.1,295.3,165.4,297,162.5,297z"/>
	</g>
	<g>
		<path class="st0" d="M266.8,12v47.3h-9.1c-3.1,0-6-0.8-8.6-2.1c-1.4-0.7-2.7-1.6-3.8-2.7c-1.6-1.4-3-3.2-4.1-5.2h-17.6
			c-4.8,0-9.3-1.9-12.5-4.9c-3.8-3.4-6.1-8.4-6.1-13.8c0-5.2,2-9.9,5.4-13.2c3.4-3.4,8.1-5.5,13.2-5.5H266.8z"/>
	</g>
	<g>
		<path class="st8" d="M370.5,186.3H189.2c-13.9,0-25.1-11.2-25.1-25.1v-29.7c0-13.9,11.2-25.1,25.1-25.1h181.4
			c13.9,0,25.1,11.2,25.1,25.1v29.7C395.6,175,384.4,186.3,370.5,186.3"/>
	</g>
	<g>
		<path class="st5" d="M249.3,135.2l-19.7,25.9h15.1c3.5,0,6.1,2.4,6.1,5.4c0,3-2.7,5.4-6.1,5.4h-25.3c-3.4,0-6.4-2.6-6.4-5.8
			c0-1.1,0.2-2.2,1.1-3.4l19.8-26.1h-14c-3.4,0-6-2.4-6-5.4c0-3.1,2.7-5.4,6-5.4h24.2c3.5,0,6.5,2.1,6.5,5.7
			C250.5,132.7,250.2,134,249.3,135.2z"/>
		<path class="st5" d="M256.2,155.6V142c0-9.6,6.8-17,19.8-17c13,0,19.8,7.4,19.8,17v13.6c0,9.6-6.9,17-19.8,17
			C263,172.6,256.2,165.2,256.2,155.6z M283.2,155.6v-13.7c0-3.7-2.5-6.1-7.2-6.1c-4.8,0-7.2,2.4-7.2,6.1v13.7
			c0,3.8,2.5,6.2,7.2,6.2C280.7,161.8,283.2,159.4,283.2,155.6z"/>
		<path class="st5" d="M304,155.6V142c0-9.6,6.8-17,19.8-17c13,0,19.8,7.4,19.8,17v13.6c0,9.6-6.9,17-19.8,17
			C310.8,172.6,304,165.2,304,155.6z M331,155.6v-13.7c0-3.7-2.5-6.1-7.2-6.1c-4.8,0-7.2,2.4-7.2,6.1v13.7c0,3.8,2.5,6.2,7.2,6.2
			C328.5,161.8,331,159.4,331,155.6z"/>
	</g>
	<g>
		<path class="st0" d="M269.8,18.7l-1.1-1.1c-2.5-2.5-2.5-6.6,0-9.2l6.4-6.5c2.5-2.5,6.6-2.5,9.2,0l1.1,1.2c2.5,2.5,2.5,6.6,0,9.2
			l-6.4,6.4C276.5,21.2,272.4,21.2,269.8,18.7"/>
	</g>
</g>
</svg>
